999
DXF from OpenSCAD
  0
SECTION
  2
HEADER
  9
$ACADVER
  1
AC1006
  9
$INSBASE
 10
0.0
 20
0.0
 30
0.0
  9
$EXTMIN
 10
-121.7
 20
-204.934
  9
$EXTMAX
 10
121.7
 20
8
  9
$LINMIN
 10
-121.7
 20
-204.934
  9
$LINMAX
 10
121.7
 20
8
  0
ENDSEC
  0
SECTION
  2
TABLES
  0
TABLE
  2
LTYPE
 70
1
  0
LTYPE
  2
CONTINUOUS
 70
64
  3
Solid line
 72
65
 73
0
 40
0.000000
  0
ENDTAB
  0
TABLE
  2
LAYER
 70
6
  0
LAYER
  2
0
 70
64
 62
7
  6
CONTINUOUS
  0
ENDTAB
  0
TABLE
  2
STYLE
 70
0
  0
ENDTAB
  0
ENDSEC
  0
SECTION
  2
BLOCKS
  0
ENDSEC
  0
SECTION
  2
ENTITIES
  0
LWPOLYLINE
100
AcDbEntity
  8
0
100
AcDbPolyline
 90
1203
 70
1
 10
113.742
 20
-204.934
 10
113.784
 20
-204.934
 10
113.826
 20
-204.933
 10
113.868
 20
-204.932
 10
113.909
 20
-204.931
 10
113.951
 20
-204.93
 10
113.993
 20
-204.929
 10
114.035
 20
-204.927
 10
114.077
 20
-204.925
 10
114.119
 20
-204.923
 10
114.161
 20
-204.921
 10
114.202
 20
-204.918
 10
114.244
 20
-204.916
 10
114.286
 20
-204.913
 10
114.328
 20
-204.91
 10
114.369
 20
-204.906
 10
114.411
 20
-204.903
 10
114.453
 20
-204.899
 10
114.495
 20
-204.895
 10
114.536
 20
-204.89
 10
114.578
 20
-204.886
 10
114.619
 20
-204.881
 10
114.661
 20
-204.876
 10
114.703
 20
-204.871
 10
114.744
 20
-204.866
 10
114.786
 20
-204.86
 10
114.827
 20
-204.854
 10
114.869
 20
-204.848
 10
114.91
 20
-204.842
 10
114.951
 20
-204.836
 10
114.993
 20
-204.829
 10
115.034
 20
-204.822
 10
115.075
 20
-204.815
 10
115.117
 20
-204.808
 10
115.158
 20
-204.8
 10
115.199
 20
-204.792
 10
115.24
 20
-204.785
 10
115.281
 20
-204.776
 10
115.322
 20
-204.768
 10
115.363
 20
-204.759
 10
115.404
 20
-204.751
 10
115.445
 20
-204.742
 10
115.486
 20
-204.732
 10
115.527
 20
-204.723
 10
115.568
 20
-204.713
 10
115.608
 20
-204.703
 10
115.649
 20
-204.693
 10
115.69
 20
-204.683
 10
115.73
 20
-204.672
 10
115.771
 20
-204.662
 10
115.811
 20
-204.651
 10
115.851
 20
-204.639
 10
115.892
 20
-204.628
 10
115.932
 20
-204.617
 10
115.972
 20
-204.605
 10
116.012
 20
-204.593
 10
116.052
 20
-204.581
 10
116.092
 20
-204.568
 10
116.132
 20
-204.555
 10
116.172
 20
-204.543
 10
116.212
 20
-204.53
 10
116.252
 20
-204.516
 10
116.291
 20
-204.503
 10
116.331
 20
-204.489
 10
116.37
 20
-204.475
 10
116.41
 20
-204.461
 10
116.449
 20
-204.447
 10
116.489
 20
-204.432
 10
116.528
 20
-204.418
 10
116.567
 20
-204.403
 10
116.606
 20
-204.388
 10
116.645
 20
-204.372
 10
116.684
 20
-204.357
 10
116.723
 20
-204.341
 10
116.761
 20
-204.325
 10
116.8
 20
-204.309
 10
116.839
 20
-204.293
 10
116.877
 20
-204.276
 10
116.916
 20
-204.259
 10
116.954
 20
-204.243
 10
116.992
 20
-204.225
 10
117.03
 20
-204.208
 10
117.068
 20
-204.191
 10
117.106
 20
-204.173
 10
117.144
 20
-204.155
 10
117.182
 20
-204.137
 10
117.22
 20
-204.118
 10
117.257
 20
-204.1
 10
117.295
 20
-204.081
 10
117.332
 20
-204.062
 10
117.369
 20
-204.043
 10
117.406
 20
-204.024
 10
117.443
 20
-204.004
 10
117.48
 20
-203.985
 10
117.517
 20
-203.965
 10
117.554
 20
-203.945
 10
117.591
 20
-203.924
 10
117.627
 20
-203.904
 10
117.664
 20
-203.883
 10
117.7
 20
-203.862
 10
117.736
 20
-203.841
 10
117.772
 20
-203.82
 10
117.808
 20
-203.799
 10
117.844
 20
-203.777
 10
117.88
 20
-203.755
 10
117.916
 20
-203.733
 10
117.951
 20
-203.711
 10
117.987
 20
-203.689
 10
118.022
 20
-203.666
 10
118.057
 20
-203.644
 10
118.092
 20
-203.621
 10
118.127
 20
-203.598
 10
118.162
 20
-203.574
 10
118.197
 20
-203.551
 10
118.231
 20
-203.527
 10
118.266
 20
-203.503
 10
118.3
 20
-203.479
 10
118.334
 20
-203.455
 10
118.368
 20
-203.431
 10
118.402
 20
-203.406
 10
118.436
 20
-203.382
 10
118.47
 20
-203.357
 10
118.503
 20
-203.332
 10
118.537
 20
-203.306
 10
118.57
 20
-203.281
 10
118.603
 20
-203.255
 10
118.636
 20
-203.23
 10
118.669
 20
-203.204
 10
118.702
 20
-203.178
 10
118.735
 20
-203.151
 10
118.767
 20
-203.125
 10
118.799
 20
-203.098
 10
118.832
 20
-203.071
 10
118.864
 20
-203.045
 10
118.896
 20
-203.017
 10
118.927
 20
-202.99
 10
118.959
 20
-202.963
 10
118.99
 20
-202.935
 10
119.022
 20
-202.907
 10
119.053
 20
-202.879
 10
119.084
 20
-202.851
 10
119.115
 20
-202.823
 10
119.146
 20
-202.795
 10
119.176
 20
-202.766
 10
119.207
 20
-202.737
 10
119.237
 20
-202.708
 10
119.267
 20
-202.679
 10
119.297
 20
-202.65
 10
119.327
 20
-202.621
 10
119.357
 20
-202.591
 10
119.386
 20
-202.561
 10
119.416
 20
-202.531
 10
119.445
 20
-202.501
 10
119.474
 20
-202.471
 10
119.503
 20
-202.441
 10
119.532
 20
-202.411
 10
119.56
 20
-202.38
 10
119.589
 20
-202.349
 10
119.617
 20
-202.318
 10
119.645
 20
-202.287
 10
119.673
 20
-202.256
 10
119.701
 20
-202.225
 10
119.729
 20
-202.193
 10
119.756
 20
-202.162
 10
119.783
 20
-202.13
 10
119.81
 20
-202.098
 10
119.837
 20
-202.066
 10
119.864
 20
-202.034
 10
119.891
 20
-202.001
 10
119.917
 20
-201.969
 10
119.943
 20
-201.936
 10
119.97
 20
-201.903
 10
119.995
 20
-201.87
 10
120.021
 20
-201.837
 10
120.047
 20
-201.804
 10
120.072
 20
-201.771
 10
120.097
 20
-201.738
 10
120.123
 20
-201.704
 10
120.147
 20
-201.67
 10
120.172
 20
-201.636
 10
120.197
 20
-201.603
 10
120.221
 20
-201.568
 10
120.245
 20
-201.534
 10
120.269
 20
-201.5
 10
120.293
 20
-201.465
 10
120.317
 20
-201.431
 10
120.34
 20
-201.396
 10
120.363
 20
-201.361
 10
120.386
 20
-201.326
 10
120.409
 20
-201.291
 10
120.432
 20
-201.256
 10
120.455
 20
-201.221
 10
120.477
 20
-201.185
 10
120.499
 20
-201.15
 10
120.521
 20
-201.114
 10
120.543
 20
-201.078
 10
120.565
 20
-201.043
 10
120.586
 20
-201.007
 10
120.607
 20
-200.97
 10
120.628
 20
-200.934
 10
120.649
 20
-200.898
 10
120.67
 20
-200.861
 10
120.69
 20
-200.825
 10
120.71
 20
-200.788
 10
120.731
 20
-200.751
 10
120.75
 20
-200.715
 10
120.77
 20
-200.678
 10
120.79
 20
-200.641
 10
120.809
 20
-200.603
 10
120.828
 20
-200.566
 10
120.847
 20
-200.529
 10
120.866
 20
-200.491
 10
120.884
 20
-200.454
 10
120.903
 20
-200.416
 10
120.921
 20
-200.378
 10
120.939
 20
-200.34
 10
120.956
 20
-200.302
 10
120.974
 20
-200.264
 10
120.991
 20
-200.226
 10
121.008
 20
-200.188
 10
121.025
 20
-200.15
 10
121.042
 20
-200.111
 10
121.059
 20
-200.073
 10
121.075
 20
-200.034
 10
121.091
 20
-199.996
 10
121.107
 20
-199.957
 10
121.123
 20
-199.918
 10
121.138
 20
-199.879
 10
121.154
 20
-199.84
 10
121.169
 20
-199.801
 10
121.184
 20
-199.762
 10
121.198
 20
-199.723
 10
121.213
 20
-199.683
 10
121.227
 20
-199.644
 10
121.241
 20
-199.605
 10
121.255
 20
-199.565
 10
121.269
 20
-199.526
 10
121.282
 20
-199.486
 10
121.295
 20
-199.446
 10
121.308
 20
-199.406
 10
121.321
 20
-199.366
 10
121.334
 20
-199.327
 10
121.346
 20
-199.286
 10
121.359
 20
-199.246
 10
121.371
 20
-199.206
 10
121.382
 20
-199.166
 10
121.394
 20
-199.126
 10
121.405
 20
-199.086
 10
121.416
 20
-199.045
 10
121.427
 20
-199.005
 10
121.438
 20
-198.964
 10
121.449
 20
-198.924
 10
121.459
 20
-198.883
 10
121.469
 20
-198.842
 10
121.479
 20
-198.802
 10
121.489
 20
-198.761
 10
121.498
 20
-198.72
 10
121.507
 20
-198.679
 10
121.516
 20
-198.638
 10
121.525
 20
-198.597
 10
121.534
 20
-198.556
 10
121.542
 20
-198.515
 10
121.55
 20
-198.474
 10
121.558
 20
-198.433
 10
121.566
 20
-198.392
 10
121.574
 20
-198.351
 10
121.581
 20
-198.31
 10
121.588
 20
-198.268
 10
121.595
 20
-198.227
 10
121.602
 20
-198.186
 10
121.608
 20
-198.144
 10
121.614
 20
-198.103
 10
121.62
 20
-198.061
 10
121.626
 20
-198.02
 10
121.632
 20
-197.978
 10
121.637
 20
-197.937
 10
121.642
 20
-197.895
 10
121.647
 20
-197.854
 10
121.652
 20
-197.812
 10
121.656
 20
-197.77
 10
121.66
 20
-197.729
 10
121.664
 20
-197.687
 10
121.668
 20
-197.645
 10
121.672
 20
-197.604
 10
121.675
 20
-197.562
 10
121.679
 20
-197.52
 10
121.681
 20
-197.478
 10
121.684
 20
-197.437
 10
121.687
 20
-197.395
 10
121.689
 20
-197.353
 10
121.691
 20
-197.311
 10
121.693
 20
-197.269
 10
121.695
 20
-197.227
 10
121.696
 20
-197.185
 10
121.697
 20
-197.144
 10
121.698
 20
-197.102
 10
121.699
 20
-197.06
 10
121.7
 20
-197.018
 10
121.7
 20
-196.976
 10
121.7
 20
-196.934
 10
121.7
 20
-196.892
 10
121.7
 20
-196.85
 10
121.699
 20
-196.809
 10
121.698
 20
-196.767
 10
121.697
 20
-196.725
 10
121.696
 20
-196.683
 10
121.695
 20
-196.641
 10
121.693
 20
-196.599
 10
121.691
 20
-196.557
 10
121.689
 20
-196.515
 10
121.687
 20
-196.474
 10
121.684
 20
-196.432
 10
121.681
 20
-196.39
 10
121.679
 20
-196.348
 10
121.675
 20
-196.307
 10
121.672
 20
-196.265
 10
121.668
 20
-196.223
 10
121.664
 20
-196.181
 10
121.66
 20
-196.14
 10
121.656
 20
-196.098
 10
121.652
 20
-196.056
 10
121.647
 20
-196.015
 10
121.642
 20
-195.973
 10
121.637
 20
-195.932
 10
121.632
 20
-195.89
 10
121.626
 20
-195.848
 10
121.62
 20
-195.807
 10
121.614
 20
-195.766
 10
121.608
 20
-195.724
 10
121.602
 20
-195.683
 10
121.595
 20
-195.641
 10
121.588
 20
-195.6
 10
121.581
 20
-195.559
 10
121.574
 20
-195.517
 10
121.566
 20
-195.476
 10
121.558
 20
-195.435
 10
121.55
 20
-195.394
 10
121.542
 20
-195.353
 10
121.534
 20
-195.312
 10
121.525
 20
-195.271
 10
121.516
 20
-195.23
 10
121.507
 20
-195.189
 10
121.498
 20
-195.148
 10
121.489
 20
-195.107
 10
121.479
 20
-195.067
 10
121.469
 20
-195.026
 10
121.459
 20
-194.985
 10
121.449
 20
-194.945
 10
121.438
 20
-194.904
 10
121.427
 20
-194.864
 10
121.416
 20
-194.823
 10
121.405
 20
-194.783
 10
121.394
 20
-194.743
 10
121.382
 20
-194.702
 10
121.371
 20
-194.662
 10
121.359
 20
-194.622
 10
121.346
 20
-194.582
 10
121.334
 20
-194.542
 10
121.321
 20
-194.502
 10
121.308
 20
-194.462
 10
121.295
 20
-194.422
 10
121.282
 20
-194.383
 10
121.269
 20
-194.343
 10
121.255
 20
-194.303
 10
121.241
 20
-194.264
 10
121.227
 20
-194.224
 10
121.213
 20
-194.185
 10
121.198
 20
-194.146
 10
121.184
 20
-194.106
 10
121.169
 20
-194.067
 10
121.154
 20
-194.028
 10
121.138
 20
-193.989
 10
121.123
 20
-193.95
 10
121.107
 20
-193.911
 10
121.091
 20
-193.873
 10
121.075
 20
-193.834
 10
121.059
 20
-193.795
 10
121.042
 20
-193.757
 10
121.025
 20
-193.719
 10
121.008
 20
-193.68
 10
120.991
 20
-193.642
 10
120.974
 20
-193.604
 10
120.956
 20
-193.566
 10
120.939
 20
-193.528
 10
120.921
 20
-193.49
 10
120.903
 20
-193.452
 10
120.884
 20
-193.415
 10
120.866
 20
-193.377
 10
120.847
 20
-193.34
 10
120.828
 20
-193.302
 10
120.809
 20
-193.265
 10
120.79
 20
-193.228
 10
120.77
 20
-193.191
 10
120.75
 20
-193.154
 10
120.731
 20
-193.117
 10
120.71
 20
-193.08
 10
120.69
 20
-193.043
 10
120.67
 20
-193.007
 10
120.649
 20
-192.971
 10
120.628
 20
-192.934
 10
6.9282
 20
4
 10
6.90716
 20
4.03622
 10
6.88594
 20
4.07233
 10
6.86452
 20
4.10833
 10
6.84291
 20
4.14422
 10
6.82112
 20
4.17999
 10
6.79914
 20
4.21565
 10
6.77698
 20
4.25119
 10
6.75462
 20
4.28661
 10
6.73209
 20
4.32192
 10
6.70936
 20
4.35711
 10
6.68646
 20
4.39218
 10
6.66337
 20
4.42713
 10
6.6401
 20
4.46196
 10
6.61664
 20
4.49667
 10
6.59301
 20
4.53125
 10
6.56919
 20
4.56571
 10
6.5452
 20
4.60004
 10
6.52102
 20
4.63425
 10
6.49667
 20
4.66833
 10
6.47214
 20
4.70228
 10
6.44743
 20
4.73611
 10
6.42254
 20
4.7698
 10
6.39748
 20
4.80336
 10
6.37224
 20
4.83679
 10
6.34683
 20
4.87009
 10
6.32124
 20
4.90326
 10
6.29548
 20
4.93629
 10
6.26955
 20
4.96918
 10
6.24344
 20
5.00194
 10
6.21717
 20
5.03456
 10
6.19072
 20
5.06705
 10
6.16411
 20
5.09939
 10
6.13732
 20
5.1316
 10
6.11037
 20
5.16366
 10
6.08325
 20
5.19558
 10
6.05596
 20
5.22736
 10
6.02851
 20
5.259
 10
6.00089
 20
5.29049
 10
5.97311
 20
5.32184
 10
5.94516
 20
5.35304
 10
5.91705
 20
5.3841
 10
5.88878
 20
5.41501
 10
5.86034
 20
5.44577
 10
5.83175
 20
5.47638
 10
5.80299
 20
5.50684
 10
5.77408
 20
5.53715
 10
5.74501
 20
5.5673
 10
5.71578
 20
5.59731
 10
5.6864
 20
5.62716
 10
5.65685
 20
5.65685
 10
5.62716
 20
5.6864
 10
5.59731
 20
5.71578
 10
5.5673
 20
5.74501
 10
5.53715
 20
5.77408
 10
5.50684
 20
5.80299
 10
5.47638
 20
5.83175
 10
5.44577
 20
5.86034
 10
5.41501
 20
5.88878
 10
5.3841
 20
5.91705
 10
5.35304
 20
5.94516
 10
5.32184
 20
5.97311
 10
5.29049
 20
6.00089
 10
5.259
 20
6.02851
 10
5.22736
 20
6.05596
 10
5.19558
 20
6.08325
 10
5.16366
 20
6.11037
 10
5.1316
 20
6.13732
 10
5.09939
 20
6.16411
 10
5.06705
 20
6.19072
 10
5.03456
 20
6.21717
 10
5.00194
 20
6.24344
 10
4.96918
 20
6.26955
 10
4.93629
 20
6.29548
 10
4.90326
 20
6.32124
 10
4.87009
 20
6.34683
 10
4.83679
 20
6.37224
 10
4.80336
 20
6.39748
 10
4.7698
 20
6.42254
 10
4.73611
 20
6.44743
 10
4.70228
 20
6.47214
 10
4.66833
 20
6.49667
 10
4.63425
 20
6.52102
 10
4.60004
 20
6.5452
 10
4.56571
 20
6.56919
 10
4.53125
 20
6.59301
 10
4.49667
 20
6.61664
 10
4.46196
 20
6.6401
 10
4.42713
 20
6.66337
 10
4.39218
 20
6.68646
 10
4.35711
 20
6.70936
 10
4.32192
 20
6.73209
 10
4.28661
 20
6.75462
 10
4.25119
 20
6.77698
 10
4.21565
 20
6.79914
 10
4.17999
 20
6.82112
 10
4.14422
 20
6.84291
 10
4.10833
 20
6.86452
 10
4.07233
 20
6.88594
 10
4.03622
 20
6.90716
 10
4
 20
6.9282
 10
3.96367
 20
6.94905
 10
3.92723
 20
6.96971
 10
3.89068
 20
6.99018
 10
3.85403
 20
7.01045
 10
3.81727
 20
7.03054
 10
3.78041
 20
7.05043
 10
3.74344
 20
7.07013
 10
3.70637
 20
7.08963
 10
3.6692
 20
7.10894
 10
3.63192
 20
7.12805
 10
3.59455
 20
7.14697
 10
3.55708
 20
7.16569
 10
3.51951
 20
7.18422
 10
3.48185
 20
7.20255
 10
3.44409
 20
7.22068
 10
3.40623
 20
7.23862
 10
3.36829
 20
7.25635
 10
3.33025
 20
7.27389
 10
3.29211
 20
7.29123
 10
3.25389
 20
7.30836
 10
3.21558
 20
7.3253
 10
3.17718
 20
7.34204
 10
3.1387
 20
7.35857
 10
3.10012
 20
7.37491
 10
3.06147
 20
7.39104
 10
3.02273
 20
7.40696
 10
2.9839
 20
7.42269
 10
2.945
 20
7.43821
 10
2.90601
 20
7.45353
 10
2.86694
 20
7.46864
 10
2.8278
 20
7.48355
 10
2.78858
 20
7.49826
 10
2.74928
 20
7.51275
 10
2.7099
 20
7.52705
 10
2.67045
 20
7.54113
 10
2.63093
 20
7.55501
 10
2.59134
 20
7.56868
 10
2.55167
 20
7.58215
 10
2.51194
 20
7.5954
 10
2.47214
 20
7.60845
 10
2.43226
 20
7.62129
 10
2.39233
 20
7.63392
 10
2.35232
 20
7.64634
 10
2.31225
 20
7.65856
 10
2.27212
 20
7.67056
 10
2.23193
 20
7.68235
 10
2.19167
 20
7.69393
 10
2.15136
 20
7.7053
 10
2.11098
 20
7.71646
 10
2.07055
 20
7.72741
 10
2.03006
 20
7.73814
 10
1.98952
 20
7.74867
 10
1.94892
 20
7.75898
 10
1.90827
 20
7.76907
 10
1.86756
 20
7.77896
 10
1.82681
 20
7.78863
 10
1.786
 20
7.79809
 10
1.74515
 20
7.80733
 10
1.70424
 20
7.81636
 10
1.66329
 20
7.82518
 10
1.6223
 20
7.83378
 10
1.58126
 20
7.84217
 10
1.54018
 20
7.85034
 10
1.49905
 20
7.8583
 10
1.45788
 20
7.86604
 10
1.41668
 20
7.87356
 10
1.37543
 20
7.88087
 10
1.33415
 20
7.88797
 10
1.29283
 20
7.89485
 10
1.25148
 20
7.90151
 10
1.21009
 20
7.90795
 10
1.16866
 20
7.91418
 10
1.12721
 20
7.92019
 10
1.08572
 20
7.92598
 10
1.04421
 20
7.93156
 10
1.00267
 20
7.93692
 10
0.961095
 20
7.94206
 10
0.919497
 20
7.94698
 10
0.877874
 20
7.95169
 10
0.836228
 20
7.95618
 10
0.794558
 20
7.96044
 10
0.752867
 20
7.9645
 10
0.711154
 20
7.96833
 10
0.669423
 20
7.97194
 10
0.627673
 20
7.97534
 10
0.585906
 20
7.97852
 10
0.544122
 20
7.98147
 10
0.502324
 20
7.98421
 10
0.460512
 20
7.98673
 10
0.418688
 20
7.98904
 10
0.376852
 20
7.99112
 10
0.335005
 20
7.99298
 10
0.29315
 20
7.99463
 10
0.251286
 20
7.99605
 10
0.209416
 20
7.99726
 10
0.167539
 20
7.99825
 10
0.125659
 20
7.99901
 10
0.0837743
 20
7.99956
 10
0.0418877
 20
7.99989
 10
0
 20
8
 10
-0.0418877
 20
7.99989
 10
-0.0837743
 20
7.99956
 10
-0.125659
 20
7.99901
 10
-0.167539
 20
7.99825
 10
-0.209416
 20
7.99726
 10
-0.251286
 20
7.99605
 10
-0.29315
 20
7.99463
 10
-0.335005
 20
7.99298
 10
-0.376852
 20
7.99112
 10
-0.418688
 20
7.98904
 10
-0.460512
 20
7.98673
 10
-0.502324
 20
7.98421
 10
-0.544122
 20
7.98147
 10
-0.585906
 20
7.97852
 10
-0.627673
 20
7.97534
 10
-0.669423
 20
7.97194
 10
-0.711154
 20
7.96833
 10
-0.752867
 20
7.9645
 10
-0.794558
 20
7.96044
 10
-0.836228
 20
7.95618
 10
-0.877874
 20
7.95169
 10
-0.919497
 20
7.94698
 10
-0.961095
 20
7.94206
 10
-1.00267
 20
7.93692
 10
-1.04421
 20
7.93156
 10
-1.08572
 20
7.92598
 10
-1.12721
 20
7.92019
 10
-1.16866
 20
7.91418
 10
-1.21009
 20
7.90795
 10
-1.25148
 20
7.90151
 10
-1.29283
 20
7.89485
 10
-1.33415
 20
7.88797
 10
-1.37543
 20
7.88087
 10
-1.41668
 20
7.87356
 10
-1.45788
 20
7.86604
 10
-1.49905
 20
7.8583
 10
-1.54018
 20
7.85034
 10
-1.58126
 20
7.84217
 10
-1.6223
 20
7.83378
 10
-1.66329
 20
7.82518
 10
-1.70424
 20
7.81636
 10
-1.74515
 20
7.80733
 10
-1.786
 20
7.79809
 10
-1.82681
 20
7.78863
 10
-1.86756
 20
7.77896
 10
-1.90827
 20
7.76907
 10
-1.94892
 20
7.75898
 10
-1.98952
 20
7.74867
 10
-2.03006
 20
7.73814
 10
-2.07055
 20
7.72741
 10
-2.11098
 20
7.71646
 10
-2.15136
 20
7.7053
 10
-2.19167
 20
7.69393
 10
-2.23193
 20
7.68235
 10
-2.27212
 20
7.67056
 10
-2.31225
 20
7.65856
 10
-2.35232
 20
7.64634
 10
-2.39233
 20
7.63392
 10
-2.43226
 20
7.62129
 10
-2.47214
 20
7.60845
 10
-2.51194
 20
7.5954
 10
-2.55167
 20
7.58215
 10
-2.59134
 20
7.56868
 10
-2.63093
 20
7.55501
 10
-2.67045
 20
7.54113
 10
-2.7099
 20
7.52705
 10
-2.74928
 20
7.51275
 10
-2.78858
 20
7.49826
 10
-2.8278
 20
7.48355
 10
-2.86694
 20
7.46864
 10
-2.90601
 20
7.45353
 10
-2.945
 20
7.43821
 10
-2.9839
 20
7.42269
 10
-3.02273
 20
7.40696
 10
-3.06147
 20
7.39104
 10
-3.10012
 20
7.37491
 10
-3.1387
 20
7.35857
 10
-3.17718
 20
7.34204
 10
-3.21558
 20
7.3253
 10
-3.25389
 20
7.30836
 10
-3.29211
 20
7.29123
 10
-3.33025
 20
7.27389
 10
-3.36829
 20
7.25635
 10
-3.40623
 20
7.23862
 10
-3.44409
 20
7.22068
 10
-3.48185
 20
7.20255
 10
-3.51951
 20
7.18422
 10
-3.55708
 20
7.16569
 10
-3.59455
 20
7.14697
 10
-3.63192
 20
7.12805
 10
-3.6692
 20
7.10894
 10
-3.70637
 20
7.08963
 10
-3.74344
 20
7.07013
 10
-3.78041
 20
7.05043
 10
-3.81727
 20
7.03054
 10
-3.85403
 20
7.01045
 10
-3.89068
 20
6.99018
 10
-3.92723
 20
6.96971
 10
-3.96367
 20
6.94905
 10
-4
 20
6.9282
 10
-4.03622
 20
6.90716
 10
-4.07233
 20
6.88594
 10
-4.10833
 20
6.86452
 10
-4.14422
 20
6.84291
 10
-4.17999
 20
6.82112
 10
-4.21565
 20
6.79914
 10
-4.25119
 20
6.77698
 10
-4.28661
 20
6.75462
 10
-4.32192
 20
6.73209
 10
-4.35711
 20
6.70936
 10
-4.39218
 20
6.68646
 10
-4.42713
 20
6.66337
 10
-4.46196
 20
6.6401
 10
-4.49667
 20
6.61664
 10
-4.53125
 20
6.59301
 10
-4.56571
 20
6.56919
 10
-4.60004
 20
6.5452
 10
-4.63425
 20
6.52102
 10
-4.66833
 20
6.49667
 10
-4.70228
 20
6.47214
 10
-4.73611
 20
6.44743
 10
-4.7698
 20
6.42254
 10
-4.80336
 20
6.39748
 10
-4.83679
 20
6.37224
 10
-4.87009
 20
6.34683
 10
-4.90326
 20
6.32124
 10
-4.93629
 20
6.29548
 10
-4.96918
 20
6.26955
 10
-5.00194
 20
6.24344
 10
-5.03456
 20
6.21717
 10
-5.06705
 20
6.19072
 10
-5.09939
 20
6.16411
 10
-5.1316
 20
6.13732
 10
-5.16366
 20
6.11037
 10
-5.19558
 20
6.08325
 10
-5.22736
 20
6.05596
 10
-5.259
 20
6.02851
 10
-5.29049
 20
6.00089
 10
-5.32184
 20
5.97311
 10
-5.35304
 20
5.94516
 10
-5.3841
 20
5.91705
 10
-5.41501
 20
5.88878
 10
-5.44577
 20
5.86034
 10
-5.47638
 20
5.83175
 10
-5.50684
 20
5.80299
 10
-5.53715
 20
5.77408
 10
-5.5673
 20
5.74501
 10
-5.59731
 20
5.71578
 10
-5.62716
 20
5.6864
 10
-5.65685
 20
5.65685
 10
-5.6864
 20
5.62716
 10
-5.71578
 20
5.59731
 10
-5.74501
 20
5.5673
 10
-5.77408
 20
5.53715
 10
-5.80299
 20
5.50684
 10
-5.83175
 20
5.47638
 10
-5.86034
 20
5.44577
 10
-5.88878
 20
5.41501
 10
-5.91705
 20
5.3841
 10
-5.94516
 20
5.35304
 10
-5.97311
 20
5.32184
 10
-6.00089
 20
5.29049
 10
-6.02851
 20
5.259
 10
-6.05596
 20
5.22736
 10
-6.08325
 20
5.19558
 10
-6.11037
 20
5.16366
 10
-6.13732
 20
5.1316
 10
-6.16411
 20
5.09939
 10
-6.19072
 20
5.06705
 10
-6.21717
 20
5.03456
 10
-6.24344
 20
5.00194
 10
-6.26955
 20
4.96918
 10
-6.29548
 20
4.93629
 10
-6.32124
 20
4.90326
 10
-6.34683
 20
4.87009
 10
-6.37224
 20
4.83679
 10
-6.39748
 20
4.80336
 10
-6.42254
 20
4.7698
 10
-6.44743
 20
4.73611
 10
-6.47214
 20
4.70228
 10
-6.49667
 20
4.66833
 10
-6.52102
 20
4.63425
 10
-6.5452
 20
4.60004
 10
-6.56919
 20
4.56571
 10
-6.59301
 20
4.53125
 10
-6.61664
 20
4.49667
 10
-6.6401
 20
4.46196
 10
-6.66337
 20
4.42713
 10
-6.68646
 20
4.39218
 10
-6.70936
 20
4.35711
 10
-6.73209
 20
4.32192
 10
-6.75462
 20
4.28661
 10
-6.77698
 20
4.25119
 10
-6.79914
 20
4.21565
 10
-6.82112
 20
4.17999
 10
-6.84291
 20
4.14422
 10
-6.86452
 20
4.10833
 10
-6.88594
 20
4.07233
 10
-6.90716
 20
4.03622
 10
-6.9282
 20
4
 10
-120.628
 20
-192.934
 10
-120.649
 20
-192.971
 10
-120.67
 20
-193.007
 10
-120.69
 20
-193.043
 10
-120.71
 20
-193.08
 10
-120.731
 20
-193.117
 10
-120.75
 20
-193.154
 10
-120.77
 20
-193.191
 10
-120.79
 20
-193.228
 10
-120.809
 20
-193.265
 10
-120.828
 20
-193.302
 10
-120.847
 20
-193.34
 10
-120.866
 20
-193.377
 10
-120.884
 20
-193.415
 10
-120.903
 20
-193.452
 10
-120.921
 20
-193.49
 10
-120.939
 20
-193.528
 10
-120.956
 20
-193.566
 10
-120.974
 20
-193.604
 10
-120.991
 20
-193.642
 10
-121.008
 20
-193.68
 10
-121.025
 20
-193.719
 10
-121.042
 20
-193.757
 10
-121.059
 20
-193.795
 10
-121.075
 20
-193.834
 10
-121.091
 20
-193.873
 10
-121.107
 20
-193.911
 10
-121.123
 20
-193.95
 10
-121.138
 20
-193.989
 10
-121.154
 20
-194.028
 10
-121.169
 20
-194.067
 10
-121.184
 20
-194.106
 10
-121.198
 20
-194.146
 10
-121.213
 20
-194.185
 10
-121.227
 20
-194.224
 10
-121.241
 20
-194.264
 10
-121.255
 20
-194.303
 10
-121.269
 20
-194.343
 10
-121.282
 20
-194.383
 10
-121.295
 20
-194.422
 10
-121.308
 20
-194.462
 10
-121.321
 20
-194.502
 10
-121.334
 20
-194.542
 10
-121.346
 20
-194.582
 10
-121.359
 20
-194.622
 10
-121.371
 20
-194.662
 10
-121.382
 20
-194.702
 10
-121.394
 20
-194.743
 10
-121.405
 20
-194.783
 10
-121.416
 20
-194.823
 10
-121.427
 20
-194.864
 10
-121.438
 20
-194.904
 10
-121.449
 20
-194.945
 10
-121.459
 20
-194.985
 10
-121.469
 20
-195.026
 10
-121.479
 20
-195.067
 10
-121.489
 20
-195.107
 10
-121.498
 20
-195.148
 10
-121.507
 20
-195.189
 10
-121.516
 20
-195.23
 10
-121.525
 20
-195.271
 10
-121.534
 20
-195.312
 10
-121.542
 20
-195.353
 10
-121.55
 20
-195.394
 10
-121.558
 20
-195.435
 10
-121.566
 20
-195.476
 10
-121.574
 20
-195.517
 10
-121.581
 20
-195.559
 10
-121.588
 20
-195.6
 10
-121.595
 20
-195.641
 10
-121.602
 20
-195.683
 10
-121.608
 20
-195.724
 10
-121.614
 20
-195.766
 10
-121.62
 20
-195.807
 10
-121.626
 20
-195.848
 10
-121.632
 20
-195.89
 10
-121.637
 20
-195.932
 10
-121.642
 20
-195.973
 10
-121.647
 20
-196.015
 10
-121.652
 20
-196.056
 10
-121.656
 20
-196.098
 10
-121.66
 20
-196.14
 10
-121.664
 20
-196.181
 10
-121.668
 20
-196.223
 10
-121.672
 20
-196.265
 10
-121.675
 20
-196.307
 10
-121.679
 20
-196.348
 10
-121.681
 20
-196.39
 10
-121.684
 20
-196.432
 10
-121.687
 20
-196.474
 10
-121.689
 20
-196.515
 10
-121.691
 20
-196.557
 10
-121.693
 20
-196.599
 10
-121.695
 20
-196.641
 10
-121.696
 20
-196.683
 10
-121.697
 20
-196.725
 10
-121.698
 20
-196.767
 10
-121.699
 20
-196.809
 10
-121.7
 20
-196.85
 10
-121.7
 20
-196.892
 10
-121.7
 20
-196.934
 10
-121.7
 20
-196.976
 10
-121.7
 20
-197.018
 10
-121.699
 20
-197.06
 10
-121.698
 20
-197.102
 10
-121.697
 20
-197.144
 10
-121.696
 20
-197.185
 10
-121.695
 20
-197.227
 10
-121.693
 20
-197.269
 10
-121.691
 20
-197.311
 10
-121.689
 20
-197.353
 10
-121.687
 20
-197.395
 10
-121.684
 20
-197.437
 10
-121.681
 20
-197.478
 10
-121.679
 20
-197.52
 10
-121.675
 20
-197.562
 10
-121.672
 20
-197.604
 10
-121.668
 20
-197.645
 10
-121.664
 20
-197.687
 10
-121.66
 20
-197.729
 10
-121.656
 20
-197.77
 10
-121.652
 20
-197.812
 10
-121.647
 20
-197.854
 10
-121.642
 20
-197.895
 10
-121.637
 20
-197.937
 10
-121.632
 20
-197.978
 10
-121.626
 20
-198.02
 10
-121.62
 20
-198.061
 10
-121.614
 20
-198.103
 10
-121.608
 20
-198.144
 10
-121.602
 20
-198.186
 10
-121.595
 20
-198.227
 10
-121.588
 20
-198.268
 10
-121.581
 20
-198.31
 10
-121.574
 20
-198.351
 10
-121.566
 20
-198.392
 10
-121.558
 20
-198.433
 10
-121.55
 20
-198.474
 10
-121.542
 20
-198.515
 10
-121.534
 20
-198.556
 10
-121.525
 20
-198.597
 10
-121.516
 20
-198.638
 10
-121.507
 20
-198.679
 10
-121.498
 20
-198.72
 10
-121.489
 20
-198.761
 10
-121.479
 20
-198.802
 10
-121.469
 20
-198.842
 10
-121.459
 20
-198.883
 10
-121.449
 20
-198.924
 10
-121.438
 20
-198.964
 10
-121.427
 20
-199.005
 10
-121.416
 20
-199.045
 10
-121.405
 20
-199.086
 10
-121.394
 20
-199.126
 10
-121.382
 20
-199.166
 10
-121.371
 20
-199.206
 10
-121.359
 20
-199.246
 10
-121.346
 20
-199.286
 10
-121.334
 20
-199.327
 10
-121.321
 20
-199.366
 10
-121.308
 20
-199.406
 10
-121.295
 20
-199.446
 10
-121.282
 20
-199.486
 10
-121.269
 20
-199.526
 10
-121.255
 20
-199.565
 10
-121.241
 20
-199.605
 10
-121.227
 20
-199.644
 10
-121.213
 20
-199.683
 10
-121.198
 20
-199.723
 10
-121.184
 20
-199.762
 10
-121.169
 20
-199.801
 10
-121.154
 20
-199.84
 10
-121.138
 20
-199.879
 10
-121.123
 20
-199.918
 10
-121.107
 20
-199.957
 10
-121.091
 20
-199.996
 10
-121.075
 20
-200.034
 10
-121.059
 20
-200.073
 10
-121.042
 20
-200.111
 10
-121.025
 20
-200.15
 10
-121.008
 20
-200.188
 10
-120.991
 20
-200.226
 10
-120.974
 20
-200.264
 10
-120.956
 20
-200.302
 10
-120.939
 20
-200.34
 10
-120.921
 20
-200.378
 10
-120.903
 20
-200.416
 10
-120.884
 20
-200.454
 10
-120.866
 20
-200.491
 10
-120.847
 20
-200.529
 10
-120.828
 20
-200.566
 10
-120.809
 20
-200.603
 10
-120.79
 20
-200.641
 10
-120.77
 20
-200.678
 10
-120.75
 20
-200.715
 10
-120.731
 20
-200.751
 10
-120.71
 20
-200.788
 10
-120.69
 20
-200.825
 10
-120.67
 20
-200.861
 10
-120.649
 20
-200.898
 10
-120.628
 20
-200.934
 10
-120.607
 20
-200.97
 10
-120.586
 20
-201.007
 10
-120.565
 20
-201.043
 10
-120.543
 20
-201.078
 10
-120.521
 20
-201.114
 10
-120.499
 20
-201.15
 10
-120.477
 20
-201.185
 10
-120.455
 20
-201.221
 10
-120.432
 20
-201.256
 10
-120.409
 20
-201.291
 10
-120.386
 20
-201.326
 10
-120.363
 20
-201.361
 10
-120.34
 20
-201.396
 10
-120.317
 20
-201.431
 10
-120.293
 20
-201.465
 10
-120.269
 20
-201.5
 10
-120.245
 20
-201.534
 10
-120.221
 20
-201.568
 10
-120.197
 20
-201.603
 10
-120.172
 20
-201.636
 10
-120.147
 20
-201.67
 10
-120.123
 20
-201.704
 10
-120.097
 20
-201.738
 10
-120.072
 20
-201.771
 10
-120.047
 20
-201.804
 10
-120.021
 20
-201.837
 10
-119.995
 20
-201.87
 10
-119.97
 20
-201.903
 10
-119.943
 20
-201.936
 10
-119.917
 20
-201.969
 10
-119.891
 20
-202.001
 10
-119.864
 20
-202.034
 10
-119.837
 20
-202.066
 10
-119.81
 20
-202.098
 10
-119.783
 20
-202.13
 10
-119.756
 20
-202.162
 10
-119.729
 20
-202.193
 10
-119.701
 20
-202.225
 10
-119.673
 20
-202.256
 10
-119.645
 20
-202.287
 10
-119.617
 20
-202.318
 10
-119.589
 20
-202.349
 10
-119.56
 20
-202.38
 10
-119.532
 20
-202.411
 10
-119.503
 20
-202.441
 10
-119.474
 20
-202.471
 10
-119.445
 20
-202.501
 10
-119.416
 20
-202.531
 10
-119.386
 20
-202.561
 10
-119.357
 20
-202.591
 10
-119.327
 20
-202.621
 10
-119.297
 20
-202.65
 10
-119.267
 20
-202.679
 10
-119.237
 20
-202.708
 10
-119.207
 20
-202.737
 10
-119.176
 20
-202.766
 10
-119.146
 20
-202.795
 10
-119.115
 20
-202.823
 10
-119.084
 20
-202.851
 10
-119.053
 20
-202.879
 10
-119.022
 20
-202.907
 10
-118.99
 20
-202.935
 10
-118.959
 20
-202.963
 10
-118.927
 20
-202.99
 10
-118.896
 20
-203.017
 10
-118.864
 20
-203.045
 10
-118.832
 20
-203.071
 10
-118.799
 20
-203.098
 10
-118.767
 20
-203.125
 10
-118.735
 20
-203.151
 10
-118.702
 20
-203.178
 10
-118.669
 20
-203.204
 10
-118.636
 20
-203.23
 10
-118.603
 20
-203.255
 10
-118.57
 20
-203.281
 10
-118.537
 20
-203.306
 10
-118.503
 20
-203.332
 10
-118.47
 20
-203.357
 10
-118.436
 20
-203.382
 10
-118.402
 20
-203.406
 10
-118.368
 20
-203.431
 10
-118.334
 20
-203.455
 10
-118.3
 20
-203.479
 10
-118.266
 20
-203.503
 10
-118.231
 20
-203.527
 10
-118.197
 20
-203.551
 10
-118.162
 20
-203.574
 10
-118.127
 20
-203.598
 10
-118.092
 20
-203.621
 10
-118.057
 20
-203.644
 10
-118.022
 20
-203.666
 10
-117.987
 20
-203.689
 10
-117.951
 20
-203.711
 10
-117.916
 20
-203.733
 10
-117.88
 20
-203.755
 10
-117.844
 20
-203.777
 10
-117.808
 20
-203.799
 10
-117.772
 20
-203.82
 10
-117.736
 20
-203.841
 10
-117.7
 20
-203.862
 10
-117.664
 20
-203.883
 10
-117.627
 20
-203.904
 10
-117.591
 20
-203.924
 10
-117.554
 20
-203.945
 10
-117.517
 20
-203.965
 10
-117.48
 20
-203.985
 10
-117.443
 20
-204.004
 10
-117.406
 20
-204.024
 10
-117.369
 20
-204.043
 10
-117.332
 20
-204.062
 10
-117.295
 20
-204.081
 10
-117.257
 20
-204.1
 10
-117.22
 20
-204.118
 10
-117.182
 20
-204.137
 10
-117.144
 20
-204.155
 10
-117.106
 20
-204.173
 10
-117.068
 20
-204.191
 10
-117.03
 20
-204.208
 10
-116.992
 20
-204.225
 10
-116.954
 20
-204.243
 10
-116.916
 20
-204.259
 10
-116.877
 20
-204.276
 10
-116.839
 20
-204.293
 10
-116.8
 20
-204.309
 10
-116.761
 20
-204.325
 10
-116.723
 20
-204.341
 10
-116.684
 20
-204.357
 10
-116.645
 20
-204.372
 10
-116.606
 20
-204.388
 10
-116.567
 20
-204.403
 10
-116.528
 20
-204.418
 10
-116.489
 20
-204.432
 10
-116.449
 20
-204.447
 10
-116.41
 20
-204.461
 10
-116.37
 20
-204.475
 10
-116.331
 20
-204.489
 10
-116.291
 20
-204.503
 10
-116.252
 20
-204.516
 10
-116.212
 20
-204.53
 10
-116.172
 20
-204.543
 10
-116.132
 20
-204.555
 10
-116.092
 20
-204.568
 10
-116.052
 20
-204.581
 10
-116.012
 20
-204.593
 10
-115.972
 20
-204.605
 10
-115.932
 20
-204.617
 10
-115.892
 20
-204.628
 10
-115.851
 20
-204.639
 10
-115.811
 20
-204.651
 10
-115.771
 20
-204.662
 10
-115.73
 20
-204.672
 10
-115.69
 20
-204.683
 10
-115.649
 20
-204.693
 10
-115.608
 20
-204.703
 10
-115.568
 20
-204.713
 10
-115.527
 20
-204.723
 10
-115.486
 20
-204.732
 10
-115.445
 20
-204.742
 10
-115.404
 20
-204.751
 10
-115.363
 20
-204.759
 10
-115.322
 20
-204.768
 10
-115.281
 20
-204.776
 10
-115.24
 20
-204.785
 10
-115.199
 20
-204.792
 10
-115.158
 20
-204.8
 10
-115.117
 20
-204.808
 10
-115.075
 20
-204.815
 10
-115.034
 20
-204.822
 10
-114.993
 20
-204.829
 10
-114.951
 20
-204.836
 10
-114.91
 20
-204.842
 10
-114.869
 20
-204.848
 10
-114.827
 20
-204.854
 10
-114.786
 20
-204.86
 10
-114.744
 20
-204.866
 10
-114.703
 20
-204.871
 10
-114.661
 20
-204.876
 10
-114.619
 20
-204.881
 10
-114.578
 20
-204.886
 10
-114.536
 20
-204.89
 10
-114.495
 20
-204.895
 10
-114.453
 20
-204.899
 10
-114.411
 20
-204.903
 10
-114.369
 20
-204.906
 10
-114.328
 20
-204.91
 10
-114.286
 20
-204.913
 10
-114.244
 20
-204.916
 10
-114.202
 20
-204.918
 10
-114.161
 20
-204.921
 10
-114.119
 20
-204.923
 10
-114.077
 20
-204.925
 10
-114.035
 20
-204.927
 10
-113.993
 20
-204.929
 10
-113.951
 20
-204.93
 10
-113.909
 20
-204.931
 10
-113.868
 20
-204.932
 10
-113.826
 20
-204.933
 10
-113.784
 20
-204.934
 10
-113.742
 20
-204.934
 10
-113.7
 20
-204.934
 10
113.7
 20
-204.934
  0
LWPOLYLINE
100
AcDbEntity
  8
0
100
AcDbPolyline
 90
3
 70
1
 10
-2.59808
 20
1.5
 10
2.59808
 20
1.5
 10
0
 20
-3
  0
LWPOLYLINE
100
AcDbEntity
  8
0
100
AcDbPolyline
 90
1203
 70
1
 10
-90.9935
 20
-190.205
 10
-91.027
 20
-190.205
 10
-91.0605
 20
-190.204
 10
-91.094
 20
-190.204
 10
-91.1275
 20
-190.203
 10
-91.161
 20
-190.202
 10
-91.1945
 20
-190.201
 10
-91.228
 20
-190.2
 10
-91.2615
 20
-190.198
 10
-91.295
 20
-190.196
 10
-91.3284
 20
-190.195
 10
-91.3619
 20
-190.193
 10
-91.3953
 20
-190.19
 10
-91.4287
 20
-190.188
 10
-91.4621
 20
-190.186
 10
-91.4955
 20
-190.183
 10
-91.5289
 20
-190.18
 10
-91.5623
 20
-190.177
 10
-91.5956
 20
-190.174
 10
-91.629
 20
-190.17
 10
-91.6623
 20
-190.167
 10
-91.6956
 20
-190.163
 10
-91.7289
 20
-190.159
 10
-91.7621
 20
-190.155
 10
-91.7954
 20
-190.15
 10
-91.8286
 20
-190.146
 10
-91.8618
 20
-190.141
 10
-91.8949
 20
-190.137
 10
-91.9281
 20
-190.132
 10
-91.9612
 20
-190.126
 10
-91.9943
 20
-190.121
 10
-92.0273
 20
-190.116
 10
-92.0603
 20
-190.11
 10
-92.0933
 20
-190.104
 10
-92.1263
 20
-190.098
 10
-92.1592
 20
-190.092
 10
-92.1921
 20
-190.086
 10
-92.225
 20
-190.079
 10
-92.2578
 20
-190.072
 10
-92.2906
 20
-190.065
 10
-92.3234
 20
-190.058
 10
-92.3561
 20
-190.051
 10
-92.3888
 20
-190.044
 10
-92.4214
 20
-190.036
 10
-92.4541
 20
-190.028
 10
-92.4866
 20
-190.02
 10
-92.5191
 20
-190.012
 10
-92.5516
 20
-190.004
 10
-92.5841
 20
-189.996
 10
-92.6164
 20
-189.987
 10
-92.6488
 20
-189.978
 10
-92.6811
 20
-189.969
 10
-92.7133
 20
-189.96
 10
-92.7455
 20
-189.951
 10
-92.7777
 20
-189.942
 10
-92.8098
 20
-189.932
 10
-92.8419
 20
-189.922
 10
-92.8739
 20
-189.912
 10
-92.9058
 20
-189.902
 10
-92.9377
 20
-189.892
 10
-92.9696
 20
-189.882
 10
-93.0013
 20
-189.871
 10
-93.0331
 20
-189.86
 10
-93.0647
 20
-189.849
 10
-93.0964
 20
-189.838
 10
-93.1279
 20
-189.827
 10
-93.1594
 20
-189.815
 10
-93.1909
 20
-189.804
 10
-93.2222
 20
-189.792
 10
-93.2536
 20
-189.78
 10
-93.2848
 20
-189.768
 10
-93.316
 20
-189.756
 10
-93.3471
 20
-189.743
 10
-93.3782
 20
-189.731
 10
-93.4092
 20
-189.718
 10
-93.4401
 20
-189.705
 10
-93.471
 20
-189.692
 10
-93.5017
 20
-189.679
 10
-93.5325
 20
-189.665
 10
-93.5631
 20
-189.652
 10
-93.5937
 20
-189.638
 10
-93.6242
 20
-189.624
 10
-93.6546
 20
-189.61
 10
-93.685
 20
-189.596
 10
-93.7153
 20
-189.582
 10
-93.7455
 20
-189.567
 10
-93.7756
 20
-189.553
 10
-93.8057
 20
-189.538
 10
-93.8356
 20
-189.523
 10
-93.8655
 20
-189.508
 10
-93.8954
 20
-189.492
 10
-93.9251
 20
-189.477
 10
-93.9548
 20
-189.461
 10
-93.9843
 20
-189.446
 10
-94.0138
 20
-189.43
 10
-94.0432
 20
-189.414
 10
-94.0725
 20
-189.397
 10
-94.1018
 20
-189.381
 10
-94.1309
 20
-189.364
 10
-94.16
 20
-189.348
 10
-94.189
 20
-189.331
 10
-94.2179
 20
-189.314
 10
-94.2467
 20
-189.297
 10
-94.2754
 20
-189.28
 10
-94.304
 20
-189.262
 10
-94.3325
 20
-189.245
 10
-94.361
 20
-189.227
 10
-94.3893
 20
-189.209
 10
-94.4175
 20
-189.191
 10
-94.4457
 20
-189.173
 10
-94.4737
 20
-189.154
 10
-94.5017
 20
-189.136
 10
-94.5296
 20
-189.117
 10
-94.5573
 20
-189.099
 10
-94.585
 20
-189.08
 10
-94.6126
 20
-189.061
 10
-94.64
 20
-189.041
 10
-94.6674
 20
-189.022
 10
-94.6947
 20
-189.003
 10
-94.7218
 20
-188.983
 10
-94.7489
 20
-188.963
 10
-94.7758
 20
-188.943
 10
-94.8027
 20
-188.923
 10
-94.8294
 20
-188.903
 10
-94.8561
 20
-188.883
 10
-94.8826
 20
-188.862
 10
-94.909
 20
-188.842
 10
-94.9353
 20
-188.821
 10
-94.9616
 20
-188.8
 10
-94.9877
 20
-188.779
 10
-95.0136
 20
-188.758
 10
-95.0395
 20
-188.737
 10
-95.0653
 20
-188.715
 10
-95.0909
 20
-188.694
 10
-95.1165
 20
-188.672
 10
-95.1419
 20
-188.65
 10
-95.1672
 20
-188.628
 10
-95.1924
 20
-188.606
 10
-95.2175
 20
-188.584
 10
-95.2424
 20
-188.561
 10
-95.2673
 20
-188.539
 10
-95.292
 20
-188.516
 10
-95.3166
 20
-188.494
 10
-95.3411
 20
-188.471
 10
-95.3655
 20
-188.448
 10
-95.3897
 20
-188.424
 10
-95.4138
 20
-188.401
 10
-95.4378
 20
-188.378
 10
-95.4617
 20
-188.354
 10
-95.4855
 20
-188.331
 10
-95.5091
 20
-188.307
 10
-95.5326
 20
-188.283
 10
-95.556
 20
-188.259
 10
-95.5793
 20
-188.235
 10
-95.6024
 20
-188.211
 10
-95.6254
 20
-188.186
 10
-95.6483
 20
-188.162
 10
-95.671
 20
-188.137
 10
-95.6936
 20
-188.113
 10
-95.7161
 20
-188.088
 10
-95.7385
 20
-188.063
 10
-95.7607
 20
-188.038
 10
-95.7828
 20
-188.012
 10
-95.8048
 20
-187.987
 10
-95.8266
 20
-187.962
 10
-95.8483
 20
-187.936
 10
-95.8699
 20
-187.911
 10
-95.8913
 20
-187.885
 10
-95.9126
 20
-187.859
 10
-95.9337
 20
-187.833
 10
-95.9548
 20
-187.807
 10
-95.9756
 20
-187.781
 10
-95.9964
 20
-187.754
 10
-96.017
 20
-187.728
 10
-96.0375
 20
-187.701
 10
-96.0578
 20
-187.675
 10
-96.078
 20
-187.648
 10
-96.098
 20
-187.621
 10
-96.1179
 20
-187.594
 10
-96.1377
 20
-187.567
 10
-96.1573
 20
-187.54
 10
-96.1768
 20
-187.513
 10
-96.1962
 20
-187.485
 10
-96.2154
 20
-187.458
 10
-96.2344
 20
-187.43
 10
-96.2533
 20
-187.403
 10
-96.2721
 20
-187.375
 10
-96.2907
 20
-187.347
 10
-96.3092
 20
-187.319
 10
-96.3275
 20
-187.291
 10
-96.3457
 20
-187.263
 10
-96.3637
 20
-187.235
 10
-96.3816
 20
-187.206
 10
-96.3993
 20
-187.178
 10
-96.4169
 20
-187.149
 10
-96.4343
 20
-187.121
 10
-96.4516
 20
-187.092
 10
-96.4687
 20
-187.063
 10
-96.4857
 20
-187.034
 10
-96.5026
 20
-187.005
 10
-96.5192
 20
-186.976
 10
-96.5358
 20
-186.947
 10
-96.5521
 20
-186.918
 10
-96.5684
 20
-186.888
 10
-96.5844
 20
-186.859
 10
-96.6003
 20
-186.83
 10
-96.6161
 20
-186.8
 10
-96.6317
 20
-186.77
 10
-96.6472
 20
-186.741
 10
-96.6624
 20
-186.711
 10
-96.6776
 20
-186.681
 10
-96.6926
 20
-186.651
 10
-96.7074
 20
-186.621
 10
-96.722
 20
-186.591
 10
-96.7365
 20
-186.561
 10
-96.7509
 20
-186.53
 10
-96.7651
 20
-186.5
 10
-96.7791
 20
-186.469
 10
-96.793
 20
-186.439
 10
-96.8067
 20
-186.408
 10
-96.8202
 20
-186.378
 10
-96.8336
 20
-186.347
 10
-96.8469
 20
-186.316
 10
-96.8599
 20
-186.285
 10
-96.8728
 20
-186.254
 10
-96.8856
 20
-186.223
 10
-96.8982
 20
-186.192
 10
-96.9106
 20
-186.161
 10
-96.9228
 20
-186.13
 10
-96.9349
 20
-186.099
 10
-96.9468
 20
-186.067
 10
-96.9586
 20
-186.036
 10
-96.9702
 20
-186.005
 10
-96.9816
 20
-185.973
 10
-96.9929
 20
-185.942
 10
-97.004
 20
-185.91
 10
-97.0149
 20
-185.878
 10
-97.0257
 20
-185.847
 10
-97.0363
 20
-185.815
 10
-97.0468
 20
-185.783
 10
-97.057
 20
-185.751
 10
-97.0671
 20
-185.719
 10
-97.0771
 20
-185.687
 10
-97.0868
 20
-185.655
 10
-97.0964
 20
-185.623
 10
-97.1059
 20
-185.591
 10
-97.1151
 20
-185.559
 10
-97.1242
 20
-185.526
 10
-97.1332
 20
-185.494
 10
-97.1419
 20
-185.462
 10
-97.1505
 20
-185.429
 10
-97.1589
 20
-185.397
 10
-97.1672
 20
-185.364
 10
-97.1753
 20
-185.332
 10
-97.1832
 20
-185.299
 10
-97.1909
 20
-185.267
 10
-97.1985
 20
-185.234
 10
-97.2059
 20
-185.201
 10
-97.2131
 20
-185.169
 10
-97.2201
 20
-185.136
 10
-97.227
 20
-185.103
 10
-97.2337
 20
-185.07
 10
-97.2403
 20
-185.037
 10
-97.2466
 20
-185.004
 10
-97.2528
 20
-184.972
 10
-97.2589
 20
-184.939
 10
-97.2647
 20
-184.906
 10
-97.2704
 20
-184.873
 10
-97.2759
 20
-184.839
 10
-97.2812
 20
-184.806
 10
-97.2864
 20
-184.773
 10
-97.2913
 20
-184.74
 10
-97.2962
 20
-184.707
 10
-97.3008
 20
-184.674
 10
-97.3052
 20
-184.641
 10
-97.3095
 20
-184.607
 10
-97.3136
 20
-184.574
 10
-97.3176
 20
-184.541
 10
-97.3214
 20
-184.508
 10
-97.3249
 20
-184.474
 10
-97.3284
 20
-184.441
 10
-97.3316
 20
-184.408
 10
-97.3347
 20
-184.374
 10
-97.3376
 20
-184.341
 10
-97.3403
 20
-184.307
 10
-97.3428
 20
-184.274
 10
-97.3452
 20
-184.241
 10
-97.3474
 20
-184.207
 10
-97.3494
 20
-184.174
 10
-97.3512
 20
-184.14
 10
-97.3529
 20
-184.107
 10
-97.3544
 20
-184.073
 10
-97.3557
 20
-184.04
 10
-97.3568
 20
-184.006
 10
-97.3578
 20
-183.973
 10
-97.3586
 20
-183.939
 10
-97.3592
 20
-183.906
 10
-97.3596
 20
-183.872
 10
-97.3599
 20
-183.839
 10
-97.36
 20
-183.805
 10
-97.3599
 20
-183.772
 10
-97.3596
 20
-183.738
 10
-97.3592
 20
-183.705
 10
-97.3586
 20
-183.671
 10
-97.3578
 20
-183.638
 10
-97.3568
 20
-183.604
 10
-97.3557
 20
-183.571
 10
-97.3544
 20
-183.537
 10
-97.3529
 20
-183.504
 10
-97.3512
 20
-183.47
 10
-97.3494
 20
-183.437
 10
-97.3474
 20
-183.403
 10
-97.3452
 20
-183.37
 10
-97.3428
 20
-183.337
 10
-97.3403
 20
-183.303
 10
-97.3376
 20
-183.27
 10
-97.3347
 20
-183.236
 10
-97.3316
 20
-183.203
 10
-97.3284
 20
-183.17
 10
-97.3249
 20
-183.136
 10
-97.3214
 20
-183.103
 10
-97.3176
 20
-183.07
 10
-97.3136
 20
-183.036
 10
-97.3095
 20
-183.003
 10
-97.3052
 20
-182.97
 10
-97.3008
 20
-182.937
 10
-97.2962
 20
-182.903
 10
-97.2913
 20
-182.87
 10
-97.2864
 20
-182.837
 10
-97.2812
 20
-182.804
 10
-97.2759
 20
-182.771
 10
-97.2704
 20
-182.738
 10
-97.2647
 20
-182.705
 10
-97.2589
 20
-182.672
 10
-97.2528
 20
-182.639
 10
-97.2466
 20
-182.606
 10
-97.2403
 20
-182.573
 10
-97.2337
 20
-182.54
 10
-97.227
 20
-182.507
 10
-97.2201
 20
-182.475
 10
-97.2131
 20
-182.442
 10
-97.2059
 20
-182.409
 10
-97.1985
 20
-182.376
 10
-97.1909
 20
-182.344
 10
-97.1832
 20
-182.311
 10
-97.1753
 20
-182.279
 10
-97.1672
 20
-182.246
 10
-97.1589
 20
-182.214
 10
-97.1505
 20
-182.181
 10
-97.1419
 20
-182.149
 10
-97.1332
 20
-182.116
 10
-97.1242
 20
-182.084
 10
-97.1151
 20
-182.052
 10
-97.1059
 20
-182.02
 10
-97.0964
 20
-181.988
 10
-97.0868
 20
-181.955
 10
-97.0771
 20
-181.923
 10
-97.0671
 20
-181.891
 10
-97.057
 20
-181.859
 10
-97.0468
 20
-181.828
 10
-97.0363
 20
-181.796
 10
-97.0257
 20
-181.764
 10
-97.0149
 20
-181.732
 10
-97.004
 20
-181.7
 10
-96.9929
 20
-181.669
 10
-96.9816
 20
-181.637
 10
-96.9702
 20
-181.606
 10
-96.9586
 20
-181.574
 10
-96.9468
 20
-181.543
 10
-96.9349
 20
-181.512
 10
-96.9228
 20
-181.48
 10
-96.9106
 20
-181.449
 10
-96.8982
 20
-181.418
 10
-96.8856
 20
-181.387
 10
-96.8728
 20
-181.356
 10
-96.8599
 20
-181.325
 10
-96.8469
 20
-181.294
 10
-96.8336
 20
-181.263
 10
-96.8202
 20
-181.233
 10
-96.8067
 20
-181.202
 10
-96.793
 20
-181.172
 10
-96.7791
 20
-181.141
 10
-96.7651
 20
-181.111
 10
-96.7509
 20
-181.08
 10
-96.7365
 20
-181.05
 10
-96.722
 20
-181.02
 10
-96.7074
 20
-180.99
 10
-96.6926
 20
-180.96
 10
-96.6776
 20
-180.93
 10
-96.6624
 20
-180.9
 10
-96.6472
 20
-180.87
 10
-96.6317
 20
-180.84
 10
-96.6161
 20
-180.81
 10
-96.6003
 20
-180.781
 10
-96.5844
 20
-180.751
 10
-96.5684
 20
-180.722
 10
-96.5521
 20
-180.693
 10
-96.5358
 20
-180.663
 10
-96.5192
 20
-180.634
 10
-96.5026
 20
-180.605
 10
-5.54256
 20
-23.0579
 10
-5.52573
 20
-23.0289
 10
-5.50875
 20
-23
 10
-5.49162
 20
-22.9712
 10
-5.47433
 20
-22.9425
 10
-5.4569
 20
-22.9139
 10
-5.43931
 20
-22.8854
 10
-5.42158
 20
-22.8569
 10
-5.4037
 20
-22.8286
 10
-5.38567
 20
-22.8004
 10
-5.36749
 20
-22.7722
 10
-5.34917
 20
-22.7441
 10
-5.3307
 20
-22.7162
 10
-5.31208
 20
-22.6883
 10
-5.29332
 20
-22.6606
 10
-5.27441
 20
-22.6329
 10
-5.25535
 20
-22.6053
 10
-5.23616
 20
-22.5779
 10
-5.21682
 20
-22.5505
 10
-5.19733
 20
-22.5232
 10
-5.17771
 20
-22.4961
 10
-5.15794
 20
-22.469
 10
-5.13803
 20
-22.4421
 10
-5.11798
 20
-22.4152
 10
-5.09779
 20
-22.3885
 10
-5.07746
 20
-22.3618
 10
-5.05699
 20
-22.3353
 10
-5.03638
 20
-22.3089
 10
-5.01564
 20
-22.2825
 10
-4.99475
 20
-22.2563
 10
-4.97373
 20
-22.2302
 10
-4.95258
 20
-22.2043
 10
-4.93128
 20
-22.1784
 10
-4.90986
 20
-22.1526
 10
-4.88829
 20
-22.127
 10
-4.8666
 20
-22.1014
 10
-4.84477
 20
-22.076
 10
-4.82281
 20
-22.0507
 10
-4.80071
 20
-22.0255
 10
-4.77848
 20
-22.0004
 10
-4.75613
 20
-21.9755
 10
-4.73364
 20
-21.9506
 10
-4.71102
 20
-21.9259
 10
-4.68827
 20
-21.9013
 10
-4.6654
 20
-21.8768
 10
-4.6424
 20
-21.8524
 10
-4.61927
 20
-21.8282
 10
-4.59601
 20
-21.804
 10
-4.57263
 20
-21.78
 10
-4.54912
 20
-21.7562
 10
-4.52548
 20
-21.7324
 10
-4.50173
 20
-21.7088
 10
-4.47785
 20
-21.6853
 10
-4.45384
 20
-21.6619
 10
-4.42972
 20
-21.6386
 10
-4.40547
 20
-21.6155
 10
-4.3811
 20
-21.5925
 10
-4.35661
 20
-21.5696
 10
-4.33201
 20
-21.5469
 10
-4.30728
 20
-21.5243
 10
-4.28244
 20
-21.5018
 10
-4.25747
 20
-21.4794
 10
-4.2324
 20
-21.4572
 10
-4.2072
 20
-21.4351
 10
-4.18189
 20
-21.4131
 10
-4.15647
 20
-21.3913
 10
-4.13093
 20
-21.3696
 10
-4.10528
 20
-21.348
 10
-4.07951
 20
-21.3266
 10
-4.05364
 20
-21.3053
 10
-4.02765
 20
-21.2842
 10
-4.00155
 20
-21.2631
 10
-3.97535
 20
-21.2423
 10
-3.94903
 20
-21.2215
 10
-3.92261
 20
-21.2009
 10
-3.89607
 20
-21.1804
 10
-3.86943
 20
-21.1601
 10
-3.84269
 20
-21.1399
 10
-3.81584
 20
-21.1199
 10
-3.78888
 20
-21.0999
 10
-3.76183
 20
-21.0802
 10
-3.73466
 20
-21.0606
 10
-3.7074
 20
-21.0411
 10
-3.68003
 20
-21.0217
 10
-3.65257
 20
-21.0025
 10
-3.625
 20
-20.9835
 10
-3.59733
 20
-20.9646
 10
-3.56957
 20
-20.9458
 10
-3.54171
 20
-20.9272
 10
-3.51375
 20
-20.9087
 10
-3.48569
 20
-20.8904
 10
-3.45754
 20
-20.8722
 10
-3.42929
 20
-20.8542
 10
-3.40095
 20
-20.8363
 10
-3.37252
 20
-20.8186
 10
-3.34399
 20
-20.801
 10
-3.31537
 20
-20.7836
 10
-3.28666
 20
-20.7663
 10
-3.25787
 20
-20.7491
 10
-3.22898
 20
-20.7322
 10
-3.2
 20
-20.7153
 10
-3.17094
 20
-20.6986
 10
-3.14178
 20
-20.6821
 10
-3.11255
 20
-20.6657
 10
-3.08322
 20
-20.6495
 10
-3.05382
 20
-20.6335
 10
-3.02432
 20
-20.6175
 10
-2.99475
 20
-20.6018
 10
-2.96509
 20
-20.5862
 10
-2.93536
 20
-20.5707
 10
-2.90554
 20
-20.5554
 10
-2.87564
 20
-20.5403
 10
-2.84567
 20
-20.5253
 10
-2.81561
 20
-20.5105
 10
-2.78548
 20
-20.4959
 10
-2.75527
 20
-20.4813
 10
-2.72499
 20
-20.467
 10
-2.69463
 20
-20.4528
 10
-2.6642
 20
-20.4388
 10
-2.63369
 20
-20.4249
 10
-2.60311
 20
-20.4112
 10
-2.57247
 20
-20.3976
 10
-2.54175
 20
-20.3843
 10
-2.51096
 20
-20.371
 10
-2.4801
 20
-20.358
 10
-2.44917
 20
-20.3451
 10
-2.41818
 20
-20.3323
 10
-2.38712
 20
-20.3197
 10
-2.356
 20
-20.3073
 10
-2.32481
 20
-20.2951
 10
-2.29355
 20
-20.283
 10
-2.26224
 20
-20.271
 10
-2.23086
 20
-20.2593
 10
-2.19942
 20
-20.2477
 10
-2.16792
 20
-20.2363
 10
-2.13636
 20
-20.225
 10
-2.10475
 20
-20.2139
 10
-2.07307
 20
-20.2029
 10
-2.04134
 20
-20.1922
 10
-2.00955
 20
-20.1816
 10
-1.97771
 20
-20.1711
 10
-1.94581
 20
-20.1609
 10
-1.91386
 20
-20.1508
 10
-1.88186
 20
-20.1408
 10
-1.8498
 20
-20.131
 10
-1.8177
 20
-20.1214
 10
-1.78554
 20
-20.112
 10
-1.75334
 20
-20.1027
 10
-1.72109
 20
-20.0936
 10
-1.68879
 20
-20.0847
 10
-1.65644
 20
-20.076
 10
-1.62405
 20
-20.0674
 10
-1.59162
 20
-20.059
 10
-1.55914
 20
-20.0507
 10
-1.52661
 20
-20.0426
 10
-1.49405
 20
-20.0347
 10
-1.46145
 20
-20.027
 10
-1.4288
 20
-20.0194
 10
-1.39612
 20
-20.012
 10
-1.36339
 20
-20.0048
 10
-1.33063
 20
-19.9977
 10
-1.29784
 20
-19.9909
 10
-1.26501
 20
-19.9842
 10
-1.23214
 20
-19.9776
 10
-1.19924
 20
-19.9713
 10
-1.16631
 20
-19.9651
 10
-1.13334
 20
-19.959
 10
-1.10035
 20
-19.9532
 10
-1.06732
 20
-19.9475
 10
-1.03426
 20
-19.942
 10
-1.00118
 20
-19.9367
 10
-0.968069
 20
-19.9315
 10
-0.934931
 20
-19.9265
 10
-0.901768
 20
-19.9217
 10
-0.86858
 20
-19.9171
 10
-0.835368
 20
-19.9126
 10
-0.802133
 20
-19.9084
 10
-0.768876
 20
-19.9042
 10
-0.735598
 20
-19.9003
 10
-0.7023
 20
-19.8965
 10
-0.668982
 20
-19.893
 10
-0.635646
 20
-19.8895
 10
-0.602293
 20
-19.8863
 10
-0.568924
 20
-19.8832
 10
-0.535538
 20
-19.8803
 10
-0.502138
 20
-19.8776
 10
-0.468724
 20
-19.8751
 10
-0.435298
 20
-19.8727
 10
-0.401859
 20
-19.8705
 10
-0.36841
 20
-19.8685
 10
-0.33495
 20
-19.8667
 10
-0.301481
 20
-19.865
 10
-0.268004
 20
-19.8635
 10
-0.23452
 20
-19.8622
 10
-0.201029
 20
-19.861
 10
-0.167532
 20
-19.8601
 10
-0.134031
 20
-19.8593
 10
-0.100527
 20
-19.8587
 10
-0.0670194
 20
-19.8582
 10
-0.0335102
 20
-19.858
 10
0
 20
-19.8579
 10
0.0335102
 20
-19.858
 10
0.0670194
 20
-19.8582
 10
0.100527
 20
-19.8587
 10
0.134031
 20
-19.8593
 10
0.167532
 20
-19.8601
 10
0.201029
 20
-19.861
 10
0.23452
 20
-19.8622
 10
0.268004
 20
-19.8635
 10
0.301481
 20
-19.865
 10
0.33495
 20
-19.8667
 10
0.36841
 20
-19.8685
 10
0.401859
 20
-19.8705
 10
0.435298
 20
-19.8727
 10
0.468724
 20
-19.8751
 10
0.502138
 20
-19.8776
 10
0.535538
 20
-19.8803
 10
0.568924
 20
-19.8832
 10
0.602293
 20
-19.8863
 10
0.635646
 20
-19.8895
 10
0.668982
 20
-19.893
 10
0.7023
 20
-19.8965
 10
0.735598
 20
-19.9003
 10
0.768876
 20
-19.9042
 10
0.802133
 20
-19.9084
 10
0.835368
 20
-19.9126
 10
0.86858
 20
-19.9171
 10
0.901768
 20
-19.9217
 10
0.934931
 20
-19.9265
 10
0.968069
 20
-19.9315
 10
1.00118
 20
-19.9367
 10
1.03426
 20
-19.942
 10
1.06732
 20
-19.9475
 10
1.10035
 20
-19.9532
 10
1.13334
 20
-19.959
 10
1.16631
 20
-19.9651
 10
1.19924
 20
-19.9713
 10
1.23214
 20
-19.9776
 10
1.26501
 20
-19.9842
 10
1.29784
 20
-19.9909
 10
1.33063
 20
-19.9977
 10
1.36339
 20
-20.0048
 10
1.39612
 20
-20.012
 10
1.4288
 20
-20.0194
 10
1.46145
 20
-20.027
 10
1.49405
 20
-20.0347
 10
1.52661
 20
-20.0426
 10
1.55914
 20
-20.0507
 10
1.59162
 20
-20.059
 10
1.62405
 20
-20.0674
 10
1.65644
 20
-20.076
 10
1.68879
 20
-20.0847
 10
1.72109
 20
-20.0936
 10
1.75334
 20
-20.1027
 10
1.78554
 20
-20.112
 10
1.8177
 20
-20.1214
 10
1.8498
 20
-20.131
 10
1.88186
 20
-20.1408
 10
1.91386
 20
-20.1508
 10
1.94581
 20
-20.1609
 10
1.97771
 20
-20.1711
 10
2.00955
 20
-20.1816
 10
2.04134
 20
-20.1922
 10
2.07307
 20
-20.2029
 10
2.10475
 20
-20.2139
 10
2.13636
 20
-20.225
 10
2.16792
 20
-20.2363
 10
2.19942
 20
-20.2477
 10
2.23086
 20
-20.2593
 10
2.26224
 20
-20.271
 10
2.29355
 20
-20.283
 10
2.32481
 20
-20.2951
 10
2.356
 20
-20.3073
 10
2.38712
 20
-20.3197
 10
2.41818
 20
-20.3323
 10
2.44917
 20
-20.3451
 10
2.4801
 20
-20.358
 10
2.51096
 20
-20.371
 10
2.54175
 20
-20.3843
 10
2.57247
 20
-20.3976
 10
2.60311
 20
-20.4112
 10
2.63369
 20
-20.4249
 10
2.6642
 20
-20.4388
 10
2.69463
 20
-20.4528
 10
2.72499
 20
-20.467
 10
2.75527
 20
-20.4813
 10
2.78548
 20
-20.4959
 10
2.81561
 20
-20.5105
 10
2.84567
 20
-20.5253
 10
2.87564
 20
-20.5403
 10
2.90554
 20
-20.5554
 10
2.93536
 20
-20.5707
 10
2.96509
 20
-20.5862
 10
2.99475
 20
-20.6018
 10
3.02432
 20
-20.6175
 10
3.05382
 20
-20.6335
 10
3.08322
 20
-20.6495
 10
3.11255
 20
-20.6657
 10
3.14178
 20
-20.6821
 10
3.17094
 20
-20.6986
 10
3.2
 20
-20.7153
 10
3.22898
 20
-20.7322
 10
3.25787
 20
-20.7491
 10
3.28666
 20
-20.7663
 10
3.31537
 20
-20.7836
 10
3.34399
 20
-20.801
 10
3.37252
 20
-20.8186
 10
3.40095
 20
-20.8363
 10
3.42929
 20
-20.8542
 10
3.45754
 20
-20.8722
 10
3.48569
 20
-20.8904
 10
3.51375
 20
-20.9087
 10
3.54171
 20
-20.9272
 10
3.56957
 20
-20.9458
 10
3.59733
 20
-20.9646
 10
3.625
 20
-20.9835
 10
3.65257
 20
-21.0025
 10
3.68003
 20
-21.0217
 10
3.7074
 20
-21.0411
 10
3.73466
 20
-21.0606
 10
3.76183
 20
-21.0802
 10
3.78888
 20
-21.0999
 10
3.81584
 20
-21.1199
 10
3.84269
 20
-21.1399
 10
3.86943
 20
-21.1601
 10
3.89607
 20
-21.1804
 10
3.92261
 20
-21.2009
 10
3.94903
 20
-21.2215
 10
3.97535
 20
-21.2423
 10
4.00155
 20
-21.2631
 10
4.02765
 20
-21.2842
 10
4.05364
 20
-21.3053
 10
4.07951
 20
-21.3266
 10
4.10528
 20
-21.348
 10
4.13093
 20
-21.3696
 10
4.15647
 20
-21.3913
 10
4.18189
 20
-21.4131
 10
4.2072
 20
-21.4351
 10
4.2324
 20
-21.4572
 10
4.25747
 20
-21.4794
 10
4.28244
 20
-21.5018
 10
4.30728
 20
-21.5243
 10
4.33201
 20
-21.5469
 10
4.35661
 20
-21.5696
 10
4.3811
 20
-21.5925
 10
4.40547
 20
-21.6155
 10
4.42972
 20
-21.6386
 10
4.45384
 20
-21.6619
 10
4.47785
 20
-21.6853
 10
4.50173
 20
-21.7088
 10
4.52548
 20
-21.7324
 10
4.54912
 20
-21.7562
 10
4.57263
 20
-21.78
 10
4.59601
 20
-21.804
 10
4.61927
 20
-21.8282
 10
4.6424
 20
-21.8524
 10
4.6654
 20
-21.8768
 10
4.68827
 20
-21.9013
 10
4.71102
 20
-21.9259
 10
4.73364
 20
-21.9506
 10
4.75613
 20
-21.9755
 10
4.77848
 20
-22.0004
 10
4.80071
 20
-22.0255
 10
4.82281
 20
-22.0507
 10
4.84477
 20
-22.076
 10
4.8666
 20
-22.1014
 10
4.88829
 20
-22.127
 10
4.90986
 20
-22.1526
 10
4.93128
 20
-22.1784
 10
4.95258
 20
-22.2043
 10
4.97373
 20
-22.2302
 10
4.99475
 20
-22.2563
 10
5.01564
 20
-22.2825
 10
5.03638
 20
-22.3089
 10
5.05699
 20
-22.3353
 10
5.07746
 20
-22.3618
 10
5.09779
 20
-22.3885
 10
5.11798
 20
-22.4152
 10
5.13803
 20
-22.4421
 10
5.15794
 20
-22.469
 10
5.17771
 20
-22.4961
 10
5.19733
 20
-22.5232
 10
5.21682
 20
-22.5505
 10
5.23616
 20
-22.5779
 10
5.25535
 20
-22.6053
 10
5.27441
 20
-22.6329
 10
5.29332
 20
-22.6606
 10
5.31208
 20
-22.6883
 10
5.3307
 20
-22.7162
 10
5.34917
 20
-22.7441
 10
5.36749
 20
-22.7722
 10
5.38567
 20
-22.8004
 10
5.4037
 20
-22.8286
 10
5.42158
 20
-22.8569
 10
5.43931
 20
-22.8854
 10
5.4569
 20
-22.9139
 10
5.47433
 20
-22.9425
 10
5.49162
 20
-22.9712
 10
5.50875
 20
-23
 10
5.52573
 20
-23.0289
 10
5.54256
 20
-23.0579
 10
96.5026
 20
-180.605
 10
96.5192
 20
-180.634
 10
96.5358
 20
-180.663
 10
96.5521
 20
-180.693
 10
96.5684
 20
-180.722
 10
96.5844
 20
-180.751
 10
96.6003
 20
-180.781
 10
96.6161
 20
-180.81
 10
96.6317
 20
-180.84
 10
96.6472
 20
-180.87
 10
96.6624
 20
-180.9
 10
96.6776
 20
-180.93
 10
96.6926
 20
-180.96
 10
96.7074
 20
-180.99
 10
96.722
 20
-181.02
 10
96.7365
 20
-181.05
 10
96.7509
 20
-181.08
 10
96.7651
 20
-181.111
 10
96.7791
 20
-181.141
 10
96.793
 20
-181.172
 10
96.8067
 20
-181.202
 10
96.8202
 20
-181.233
 10
96.8336
 20
-181.263
 10
96.8469
 20
-181.294
 10
96.8599
 20
-181.325
 10
96.8728
 20
-181.356
 10
96.8856
 20
-181.387
 10
96.8982
 20
-181.418
 10
96.9106
 20
-181.449
 10
96.9228
 20
-181.48
 10
96.9349
 20
-181.512
 10
96.9468
 20
-181.543
 10
96.9586
 20
-181.574
 10
96.9702
 20
-181.606
 10
96.9816
 20
-181.637
 10
96.9929
 20
-181.669
 10
97.004
 20
-181.7
 10
97.0149
 20
-181.732
 10
97.0257
 20
-181.764
 10
97.0363
 20
-181.796
 10
97.0468
 20
-181.828
 10
97.057
 20
-181.859
 10
97.0671
 20
-181.891
 10
97.0771
 20
-181.923
 10
97.0868
 20
-181.955
 10
97.0964
 20
-181.988
 10
97.1059
 20
-182.02
 10
97.1151
 20
-182.052
 10
97.1242
 20
-182.084
 10
97.1332
 20
-182.116
 10
97.1419
 20
-182.149
 10
97.1505
 20
-182.181
 10
97.1589
 20
-182.214
 10
97.1672
 20
-182.246
 10
97.1753
 20
-182.279
 10
97.1832
 20
-182.311
 10
97.1909
 20
-182.344
 10
97.1985
 20
-182.376
 10
97.2059
 20
-182.409
 10
97.2131
 20
-182.442
 10
97.2201
 20
-182.475
 10
97.227
 20
-182.507
 10
97.2337
 20
-182.54
 10
97.2403
 20
-182.573
 10
97.2466
 20
-182.606
 10
97.2528
 20
-182.639
 10
97.2589
 20
-182.672
 10
97.2647
 20
-182.705
 10
97.2704
 20
-182.738
 10
97.2759
 20
-182.771
 10
97.2812
 20
-182.804
 10
97.2864
 20
-182.837
 10
97.2913
 20
-182.87
 10
97.2962
 20
-182.903
 10
97.3008
 20
-182.937
 10
97.3052
 20
-182.97
 10
97.3095
 20
-183.003
 10
97.3136
 20
-183.036
 10
97.3176
 20
-183.07
 10
97.3214
 20
-183.103
 10
97.3249
 20
-183.136
 10
97.3284
 20
-183.17
 10
97.3316
 20
-183.203
 10
97.3347
 20
-183.236
 10
97.3376
 20
-183.27
 10
97.3403
 20
-183.303
 10
97.3428
 20
-183.337
 10
97.3452
 20
-183.37
 10
97.3474
 20
-183.403
 10
97.3494
 20
-183.437
 10
97.3512
 20
-183.47
 10
97.3529
 20
-183.504
 10
97.3544
 20
-183.537
 10
97.3557
 20
-183.571
 10
97.3568
 20
-183.604
 10
97.3578
 20
-183.638
 10
97.3586
 20
-183.671
 10
97.3592
 20
-183.705
 10
97.3596
 20
-183.738
 10
97.3599
 20
-183.772
 10
97.36
 20
-183.805
 10
97.3599
 20
-183.839
 10
97.3596
 20
-183.872
 10
97.3592
 20
-183.906
 10
97.3586
 20
-183.939
 10
97.3578
 20
-183.973
 10
97.3568
 20
-184.006
 10
97.3557
 20
-184.04
 10
97.3544
 20
-184.073
 10
97.3529
 20
-184.107
 10
97.3512
 20
-184.14
 10
97.3494
 20
-184.174
 10
97.3474
 20
-184.207
 10
97.3452
 20
-184.241
 10
97.3428
 20
-184.274
 10
97.3403
 20
-184.307
 10
97.3376
 20
-184.341
 10
97.3347
 20
-184.374
 10
97.3316
 20
-184.408
 10
97.3284
 20
-184.441
 10
97.3249
 20
-184.474
 10
97.3214
 20
-184.508
 10
97.3176
 20
-184.541
 10
97.3136
 20
-184.574
 10
97.3095
 20
-184.607
 10
97.3052
 20
-184.641
 10
97.3008
 20
-184.674
 10
97.2962
 20
-184.707
 10
97.2913
 20
-184.74
 10
97.2864
 20
-184.773
 10
97.2812
 20
-184.806
 10
97.2759
 20
-184.839
 10
97.2704
 20
-184.873
 10
97.2647
 20
-184.906
 10
97.2589
 20
-184.939
 10
97.2528
 20
-184.972
 10
97.2466
 20
-185.004
 10
97.2403
 20
-185.037
 10
97.2337
 20
-185.07
 10
97.227
 20
-185.103
 10
97.2201
 20
-185.136
 10
97.2131
 20
-185.169
 10
97.2059
 20
-185.201
 10
97.1985
 20
-185.234
 10
97.1909
 20
-185.267
 10
97.1832
 20
-185.299
 10
97.1753
 20
-185.332
 10
97.1672
 20
-185.364
 10
97.1589
 20
-185.397
 10
97.1505
 20
-185.429
 10
97.1419
 20
-185.462
 10
97.1332
 20
-185.494
 10
97.1242
 20
-185.526
 10
97.1151
 20
-185.559
 10
97.1059
 20
-185.591
 10
97.0964
 20
-185.623
 10
97.0868
 20
-185.655
 10
97.0771
 20
-185.687
 10
97.0671
 20
-185.719
 10
97.057
 20
-185.751
 10
97.0468
 20
-185.783
 10
97.0363
 20
-185.815
 10
97.0257
 20
-185.847
 10
97.0149
 20
-185.878
 10
97.004
 20
-185.91
 10
96.9929
 20
-185.942
 10
96.9816
 20
-185.973
 10
96.9702
 20
-186.005
 10
96.9586
 20
-186.036
 10
96.9468
 20
-186.067
 10
96.9349
 20
-186.099
 10
96.9228
 20
-186.13
 10
96.9106
 20
-186.161
 10
96.8982
 20
-186.192
 10
96.8856
 20
-186.223
 10
96.8728
 20
-186.254
 10
96.8599
 20
-186.285
 10
96.8469
 20
-186.316
 10
96.8336
 20
-186.347
 10
96.8202
 20
-186.378
 10
96.8067
 20
-186.408
 10
96.793
 20
-186.439
 10
96.7791
 20
-186.469
 10
96.7651
 20
-186.5
 10
96.7509
 20
-186.53
 10
96.7365
 20
-186.561
 10
96.722
 20
-186.591
 10
96.7074
 20
-186.621
 10
96.6926
 20
-186.651
 10
96.6776
 20
-186.681
 10
96.6624
 20
-186.711
 10
96.6472
 20
-186.741
 10
96.6317
 20
-186.77
 10
96.6161
 20
-186.8
 10
96.6003
 20
-186.83
 10
96.5844
 20
-186.859
 10
96.5684
 20
-186.888
 10
96.5521
 20
-186.918
 10
96.5358
 20
-186.947
 10
96.5192
 20
-186.976
 10
96.5026
 20
-187.005
 10
96.4857
 20
-187.034
 10
96.4687
 20
-187.063
 10
96.4516
 20
-187.092
 10
96.4343
 20
-187.121
 10
96.4169
 20
-187.149
 10
96.3993
 20
-187.178
 10
96.3816
 20
-187.206
 10
96.3637
 20
-187.235
 10
96.3457
 20
-187.263
 10
96.3275
 20
-187.291
 10
96.3092
 20
-187.319
 10
96.2907
 20
-187.347
 10
96.2721
 20
-187.375
 10
96.2533
 20
-187.403
 10
96.2344
 20
-187.43
 10
96.2154
 20
-187.458
 10
96.1962
 20
-187.485
 10
96.1768
 20
-187.513
 10
96.1573
 20
-187.54
 10
96.1377
 20
-187.567
 10
96.1179
 20
-187.594
 10
96.098
 20
-187.621
 10
96.078
 20
-187.648
 10
96.0578
 20
-187.675
 10
96.0375
 20
-187.701
 10
96.017
 20
-187.728
 10
95.9964
 20
-187.754
 10
95.9756
 20
-187.781
 10
95.9548
 20
-187.807
 10
95.9337
 20
-187.833
 10
95.9126
 20
-187.859
 10
95.8913
 20
-187.885
 10
95.8699
 20
-187.911
 10
95.8483
 20
-187.936
 10
95.8266
 20
-187.962
 10
95.8048
 20
-187.987
 10
95.7828
 20
-188.012
 10
95.7607
 20
-188.038
 10
95.7385
 20
-188.063
 10
95.7161
 20
-188.088
 10
95.6936
 20
-188.113
 10
95.671
 20
-188.137
 10
95.6483
 20
-188.162
 10
95.6254
 20
-188.186
 10
95.6024
 20
-188.211
 10
95.5793
 20
-188.235
 10
95.556
 20
-188.259
 10
95.5326
 20
-188.283
 10
95.5091
 20
-188.307
 10
95.4855
 20
-188.331
 10
95.4617
 20
-188.354
 10
95.4378
 20
-188.378
 10
95.4138
 20
-188.401
 10
95.3897
 20
-188.424
 10
95.3655
 20
-188.448
 10
95.3411
 20
-188.471
 10
95.3166
 20
-188.494
 10
95.292
 20
-188.516
 10
95.2673
 20
-188.539
 10
95.2424
 20
-188.561
 10
95.2175
 20
-188.584
 10
95.1924
 20
-188.606
 10
95.1672
 20
-188.628
 10
95.1419
 20
-188.65
 10
95.1165
 20
-188.672
 10
95.0909
 20
-188.694
 10
95.0653
 20
-188.715
 10
95.0395
 20
-188.737
 10
95.0136
 20
-188.758
 10
94.9877
 20
-188.779
 10
94.9616
 20
-188.8
 10
94.9353
 20
-188.821
 10
94.909
 20
-188.842
 10
94.8826
 20
-188.862
 10
94.8561
 20
-188.883
 10
94.8294
 20
-188.903
 10
94.8027
 20
-188.923
 10
94.7758
 20
-188.943
 10
94.7489
 20
-188.963
 10
94.7218
 20
-188.983
 10
94.6947
 20
-189.003
 10
94.6674
 20
-189.022
 10
94.64
 20
-189.041
 10
94.6126
 20
-189.061
 10
94.585
 20
-189.08
 10
94.5573
 20
-189.099
 10
94.5296
 20
-189.117
 10
94.5017
 20
-189.136
 10
94.4737
 20
-189.154
 10
94.4457
 20
-189.173
 10
94.4175
 20
-189.191
 10
94.3893
 20
-189.209
 10
94.361
 20
-189.227
 10
94.3325
 20
-189.245
 10
94.304
 20
-189.262
 10
94.2754
 20
-189.28
 10
94.2467
 20
-189.297
 10
94.2179
 20
-189.314
 10
94.189
 20
-189.331
 10
94.16
 20
-189.348
 10
94.1309
 20
-189.364
 10
94.1018
 20
-189.381
 10
94.0725
 20
-189.397
 10
94.0432
 20
-189.414
 10
94.0138
 20
-189.43
 10
93.9843
 20
-189.446
 10
93.9548
 20
-189.461
 10
93.9251
 20
-189.477
 10
93.8954
 20
-189.492
 10
93.8655
 20
-189.508
 10
93.8356
 20
-189.523
 10
93.8057
 20
-189.538
 10
93.7756
 20
-189.553
 10
93.7455
 20
-189.567
 10
93.7153
 20
-189.582
 10
93.685
 20
-189.596
 10
93.6546
 20
-189.61
 10
93.6242
 20
-189.624
 10
93.5937
 20
-189.638
 10
93.5631
 20
-189.652
 10
93.5325
 20
-189.665
 10
93.5017
 20
-189.679
 10
93.471
 20
-189.692
 10
93.4401
 20
-189.705
 10
93.4092
 20
-189.718
 10
93.3782
 20
-189.731
 10
93.3471
 20
-189.743
 10
93.316
 20
-189.756
 10
93.2848
 20
-189.768
 10
93.2536
 20
-189.78
 10
93.2222
 20
-189.792
 10
93.1909
 20
-189.804
 10
93.1594
 20
-189.815
 10
93.1279
 20
-189.827
 10
93.0964
 20
-189.838
 10
93.0647
 20
-189.849
 10
93.0331
 20
-189.86
 10
93.0013
 20
-189.871
 10
92.9696
 20
-189.882
 10
92.9377
 20
-189.892
 10
92.9058
 20
-189.902
 10
92.8739
 20
-189.912
 10
92.8419
 20
-189.922
 10
92.8098
 20
-189.932
 10
92.7777
 20
-189.942
 10
92.7455
 20
-189.951
 10
92.7133
 20
-189.96
 10
92.6811
 20
-189.969
 10
92.6488
 20
-189.978
 10
92.6164
 20
-189.987
 10
92.5841
 20
-189.996
 10
92.5516
 20
-190.004
 10
92.5191
 20
-190.012
 10
92.4866
 20
-190.02
 10
92.4541
 20
-190.028
 10
92.4214
 20
-190.036
 10
92.3888
 20
-190.044
 10
92.3561
 20
-190.051
 10
92.3234
 20
-190.058
 10
92.2906
 20
-190.065
 10
92.2578
 20
-190.072
 10
92.225
 20
-190.079
 10
92.1921
 20
-190.086
 10
92.1592
 20
-190.092
 10
92.1263
 20
-190.098
 10
92.0933
 20
-190.104
 10
92.0603
 20
-190.11
 10
92.0273
 20
-190.116
 10
91.9943
 20
-190.121
 10
91.9612
 20
-190.126
 10
91.9281
 20
-190.132
 10
91.8949
 20
-190.137
 10
91.8618
 20
-190.141
 10
91.8286
 20
-190.146
 10
91.7954
 20
-190.15
 10
91.7621
 20
-190.155
 10
91.7289
 20
-190.159
 10
91.6956
 20
-190.163
 10
91.6623
 20
-190.167
 10
91.629
 20
-190.17
 10
91.5956
 20
-190.174
 10
91.5623
 20
-190.177
 10
91.5289
 20
-190.18
 10
91.4955
 20
-190.183
 10
91.4621
 20
-190.186
 10
91.4287
 20
-190.188
 10
91.3953
 20
-190.19
 10
91.3619
 20
-190.193
 10
91.3284
 20
-190.195
 10
91.295
 20
-190.196
 10
91.2615
 20
-190.198
 10
91.228
 20
-190.2
 10
91.1945
 20
-190.201
 10
91.161
 20
-190.202
 10
91.1275
 20
-190.203
 10
91.094
 20
-190.204
 10
91.0605
 20
-190.204
 10
91.027
 20
-190.205
 10
90.9935
 20
-190.205
 10
90.96
 20
-190.205
 10
-90.96
 20
-190.205
  0
LWPOLYLINE
100
AcDbEntity
  8
0
100
AcDbPolyline
 90
3
 70
1
 10
-31.0231
 20
-47.7335
 10
-25.8269
 20
-47.7335
 10
-28.425
 20
-52.2335
  0
LWPOLYLINE
100
AcDbEntity
  8
0
100
AcDbPolyline
 90
3
 70
1
 10
25.8269
 20
-47.7335
 10
31.0231
 20
-47.7335
 10
28.425
 20
-52.2335
  0
LWPOLYLINE
100
AcDbEntity
  8
0
100
AcDbPolyline
 90
3
 70
1
 10
-59.4481
 20
-96.9671
 10
-54.2519
 20
-96.9671
 10
-56.85
 20
-101.467
  0
LWPOLYLINE
100
AcDbEntity
  8
0
100
AcDbPolyline
 90
3
 70
1
 10
54.2519
 20
-96.9671
 10
59.4481
 20
-96.9671
 10
56.85
 20
-101.467
  0
LWPOLYLINE
100
AcDbEntity
  8
0
100
AcDbPolyline
 90
3
 70
1
 10
-87.8731
 20
-146.201
 10
-82.6769
 20
-146.201
 10
-85.275
 20
-150.701
  0
LWPOLYLINE
100
AcDbEntity
  8
0
100
AcDbPolyline
 90
3
 70
1
 10
82.6769
 20
-146.201
 10
87.8731
 20
-146.201
 10
85.275
 20
-150.701
  0
LWPOLYLINE
100
AcDbEntity
  8
0
100
AcDbPolyline
 90
3
 70
1
 10
-116.298
 20
-195.434
 10
-111.102
 20
-195.434
 10
-113.7
 20
-199.934
  0
LWPOLYLINE
100
AcDbEntity
  8
0
100
AcDbPolyline
 90
3
 70
1
 10
-59.4481
 20
-195.434
 10
-54.2519
 20
-195.434
 10
-56.85
 20
-199.934
  0
LWPOLYLINE
100
AcDbEntity
  8
0
100
AcDbPolyline
 90
3
 70
1
 10
-2.59808
 20
-195.434
 10
2.59808
 20
-195.434
 10
0
 20
-199.934
  0
LWPOLYLINE
100
AcDbEntity
  8
0
100
AcDbPolyline
 90
3
 70
1
 10
54.2519
 20
-195.434
 10
59.4481
 20
-195.434
 10
56.85
 20
-199.934
  0
LWPOLYLINE
100
AcDbEntity
  8
0
100
AcDbPolyline
 90
3
 70
1
 10
111.102
 20
-195.434
 10
116.298
 20
-195.434
 10
113.7
 20
-199.934
  0
ENDSEC
  0
EOF
