<?xml version="1.0" standalone="no"?>
<!DOCTYPE svg PUBLIC "-//W3C//DTD SVG 1.1//EN" "http://www.w3.org/Graphics/SVG/1.1/DTD/svg11.dtd">
<svg width="244mm" height="213mm" viewBox="-122 -8 244 213" xmlns="http://www.w3.org/2000/svg" version="1.1">
<title>OpenSCAD Model</title>
<path d="
M 113.742,204.934 L 113.784,204.934 L 113.826,204.933 L 113.868,204.932 L 113.909,204.931 L 113.951,204.93
 L 113.993,204.929 L 114.035,204.927 L 114.077,204.925 L 114.119,204.923 L 114.161,204.921 L 114.202,204.918
 L 114.244,204.916 L 114.286,204.913 L 114.328,204.91 L 114.369,204.906 L 114.411,204.903 L 114.453,204.899
 L 114.495,204.895 L 114.536,204.89 L 114.578,204.886 L 114.619,204.881 L 114.661,204.876 L 114.703,204.871
 L 114.744,204.866 L 114.786,204.86 L 114.827,204.854 L 114.869,204.848 L 114.91,204.842 L 114.951,204.836
 L 114.993,204.829 L 115.034,204.822 L 115.075,204.815 L 115.117,204.808 L 115.158,204.8 L 115.199,204.792
 L 115.24,204.785 L 115.281,204.776 L 115.322,204.768 L 115.363,204.759 L 115.404,204.751 L 115.445,204.742
 L 115.486,204.732 L 115.527,204.723 L 115.568,204.713 L 115.608,204.703 L 115.649,204.693 L 115.69,204.683
 L 115.73,204.672 L 115.771,204.662 L 115.811,204.651 L 115.851,204.639 L 115.892,204.628 L 115.932,204.617
 L 115.972,204.605 L 116.012,204.593 L 116.052,204.581 L 116.092,204.568 L 116.132,204.555 L 116.172,204.543
 L 116.212,204.53 L 116.252,204.516 L 116.291,204.503 L 116.331,204.489 L 116.37,204.475 L 116.41,204.461
 L 116.449,204.447 L 116.489,204.432 L 116.528,204.418 L 116.567,204.403 L 116.606,204.388 L 116.645,204.372
 L 116.684,204.357 L 116.723,204.341 L 116.761,204.325 L 116.8,204.309 L 116.839,204.293 L 116.877,204.276
 L 116.916,204.259 L 116.954,204.243 L 116.992,204.225 L 117.03,204.208 L 117.068,204.191 L 117.106,204.173
 L 117.144,204.155 L 117.182,204.137 L 117.22,204.118 L 117.257,204.1 L 117.295,204.081 L 117.332,204.062
 L 117.369,204.043 L 117.406,204.024 L 117.443,204.004 L 117.48,203.985 L 117.517,203.965 L 117.554,203.945
 L 117.591,203.924 L 117.627,203.904 L 117.664,203.883 L 117.7,203.862 L 117.736,203.841 L 117.772,203.82
 L 117.808,203.799 L 117.844,203.777 L 117.88,203.755 L 117.916,203.733 L 117.951,203.711 L 117.987,203.689
 L 118.022,203.666 L 118.057,203.644 L 118.092,203.621 L 118.127,203.598 L 118.162,203.574 L 118.197,203.551
 L 118.231,203.527 L 118.266,203.503 L 118.3,203.479 L 118.334,203.455 L 118.368,203.431 L 118.402,203.406
 L 118.436,203.382 L 118.47,203.357 L 118.503,203.332 L 118.537,203.306 L 118.57,203.281 L 118.603,203.255
 L 118.636,203.23 L 118.669,203.204 L 118.702,203.178 L 118.735,203.151 L 118.767,203.125 L 118.799,203.098
 L 118.832,203.071 L 118.864,203.045 L 118.896,203.017 L 118.927,202.99 L 118.959,202.963 L 118.99,202.935
 L 119.022,202.907 L 119.053,202.879 L 119.084,202.851 L 119.115,202.823 L 119.146,202.795 L 119.176,202.766
 L 119.207,202.737 L 119.237,202.708 L 119.267,202.679 L 119.297,202.65 L 119.327,202.621 L 119.357,202.591
 L 119.386,202.561 L 119.416,202.531 L 119.445,202.501 L 119.474,202.471 L 119.503,202.441 L 119.532,202.411
 L 119.56,202.38 L 119.589,202.349 L 119.617,202.318 L 119.645,202.287 L 119.673,202.256 L 119.701,202.225
 L 119.729,202.193 L 119.756,202.162 L 119.783,202.13 L 119.81,202.098 L 119.837,202.066 L 119.864,202.034
 L 119.891,202.001 L 119.917,201.969 L 119.943,201.936 L 119.97,201.903 L 119.995,201.87 L 120.021,201.837
 L 120.047,201.804 L 120.072,201.771 L 120.097,201.738 L 120.123,201.704 L 120.147,201.67 L 120.172,201.636
 L 120.197,201.603 L 120.221,201.568 L 120.245,201.534 L 120.269,201.5 L 120.293,201.465 L 120.317,201.431
 L 120.34,201.396 L 120.363,201.361 L 120.386,201.326 L 120.409,201.291 L 120.432,201.256 L 120.455,201.221
 L 120.477,201.185 L 120.499,201.15 L 120.521,201.114 L 120.543,201.078 L 120.565,201.043 L 120.586,201.007
 L 120.607,200.97 L 120.628,200.934 L 120.649,200.898 L 120.67,200.861 L 120.69,200.825 L 120.71,200.788
 L 120.731,200.751 L 120.75,200.715 L 120.77,200.678 L 120.79,200.641 L 120.809,200.603 L 120.828,200.566
 L 120.847,200.529 L 120.866,200.491 L 120.884,200.454 L 120.903,200.416 L 120.921,200.378 L 120.939,200.34
 L 120.956,200.302 L 120.974,200.264 L 120.991,200.226 L 121.008,200.188 L 121.025,200.15 L 121.042,200.111
 L 121.059,200.073 L 121.075,200.034 L 121.091,199.996 L 121.107,199.957 L 121.123,199.918 L 121.138,199.879
 L 121.154,199.84 L 121.169,199.801 L 121.184,199.762 L 121.198,199.723 L 121.213,199.683 L 121.227,199.644
 L 121.241,199.605 L 121.255,199.565 L 121.269,199.526 L 121.282,199.486 L 121.295,199.446 L 121.308,199.406
 L 121.321,199.366 L 121.334,199.327 L 121.346,199.286 L 121.359,199.246 L 121.371,199.206 L 121.382,199.166
 L 121.394,199.126 L 121.405,199.086 L 121.416,199.045 L 121.427,199.005 L 121.438,198.964 L 121.449,198.924
 L 121.459,198.883 L 121.469,198.842 L 121.479,198.802 L 121.489,198.761 L 121.498,198.72 L 121.507,198.679
 L 121.516,198.638 L 121.525,198.597 L 121.534,198.556 L 121.542,198.515 L 121.55,198.474 L 121.558,198.433
 L 121.566,198.392 L 121.574,198.351 L 121.581,198.31 L 121.588,198.268 L 121.595,198.227 L 121.602,198.186
 L 121.608,198.144 L 121.614,198.103 L 121.62,198.061 L 121.626,198.02 L 121.632,197.978 L 121.637,197.937
 L 121.642,197.895 L 121.647,197.854 L 121.652,197.812 L 121.656,197.77 L 121.66,197.729 L 121.664,197.687
 L 121.668,197.645 L 121.672,197.604 L 121.675,197.562 L 121.679,197.52 L 121.681,197.478 L 121.684,197.437
 L 121.687,197.395 L 121.689,197.353 L 121.691,197.311 L 121.693,197.269 L 121.695,197.227 L 121.696,197.185
 L 121.697,197.144 L 121.698,197.102 L 121.699,197.06 L 121.7,197.018 L 121.7,196.976 L 121.7,196.934
 L 121.7,196.892 L 121.7,196.85 L 121.699,196.809 L 121.698,196.767 L 121.697,196.725 L 121.696,196.683
 L 121.695,196.641 L 121.693,196.599 L 121.691,196.557 L 121.689,196.515 L 121.687,196.474 L 121.684,196.432
 L 121.681,196.39 L 121.679,196.348 L 121.675,196.307 L 121.672,196.265 L 121.668,196.223 L 121.664,196.181
 L 121.66,196.14 L 121.656,196.098 L 121.652,196.056 L 121.647,196.015 L 121.642,195.973 L 121.637,195.932
 L 121.632,195.89 L 121.626,195.848 L 121.62,195.807 L 121.614,195.766 L 121.608,195.724 L 121.602,195.683
 L 121.595,195.641 L 121.588,195.6 L 121.581,195.559 L 121.574,195.517 L 121.566,195.476 L 121.558,195.435
 L 121.55,195.394 L 121.542,195.353 L 121.534,195.312 L 121.525,195.271 L 121.516,195.23 L 121.507,195.189
 L 121.498,195.148 L 121.489,195.107 L 121.479,195.067 L 121.469,195.026 L 121.459,194.985 L 121.449,194.945
 L 121.438,194.904 L 121.427,194.864 L 121.416,194.823 L 121.405,194.783 L 121.394,194.743 L 121.382,194.702
 L 121.371,194.662 L 121.359,194.622 L 121.346,194.582 L 121.334,194.542 L 121.321,194.502 L 121.308,194.462
 L 121.295,194.422 L 121.282,194.383 L 121.269,194.343 L 121.255,194.303 L 121.241,194.264 L 121.227,194.224
 L 121.213,194.185 L 121.198,194.146 L 121.184,194.106 L 121.169,194.067 L 121.154,194.028 L 121.138,193.989
 L 121.123,193.95 L 121.107,193.911 L 121.091,193.873 L 121.075,193.834 L 121.059,193.795 L 121.042,193.757
 L 121.025,193.719 L 121.008,193.68 L 120.991,193.642 L 120.974,193.604 L 120.956,193.566 L 120.939,193.528
 L 120.921,193.49 L 120.903,193.452 L 120.884,193.415 L 120.866,193.377 L 120.847,193.34 L 120.828,193.302
 L 120.809,193.265 L 120.79,193.228 L 120.77,193.191 L 120.75,193.154 L 120.731,193.117 L 120.71,193.08
 L 120.69,193.043 L 120.67,193.007 L 120.649,192.971 L 120.628,192.934 L 6.9282,-4 L 6.90716,-4.03622
 L 6.88594,-4.07233 L 6.86452,-4.10833 L 6.84291,-4.14422 L 6.82112,-4.17999 L 6.79914,-4.21565 L 6.77698,-4.25119
 L 6.75462,-4.28661 L 6.73209,-4.32192 L 6.70936,-4.35711 L 6.68646,-4.39218 L 6.66337,-4.42713 L 6.6401,-4.46196
 L 6.61664,-4.49667 L 6.59301,-4.53125 L 6.56919,-4.56571 L 6.5452,-4.60004 L 6.52102,-4.63425 L 6.49667,-4.66833
 L 6.47214,-4.70228 L 6.44743,-4.73611 L 6.42254,-4.7698 L 6.39748,-4.80336 L 6.37224,-4.83679 L 6.34683,-4.87009
 L 6.32124,-4.90326 L 6.29548,-4.93629 L 6.26955,-4.96918 L 6.24344,-5.00194 L 6.21717,-5.03456 L 6.19072,-5.06705
 L 6.16411,-5.09939 L 6.13732,-5.1316 L 6.11037,-5.16366 L 6.08325,-5.19558 L 6.05596,-5.22736 L 6.02851,-5.259
 L 6.00089,-5.29049 L 5.97311,-5.32184 L 5.94516,-5.35304 L 5.91705,-5.3841 L 5.88878,-5.41501 L 5.86034,-5.44577
 L 5.83175,-5.47638 L 5.80299,-5.50684 L 5.77408,-5.53715 L 5.74501,-5.5673 L 5.71578,-5.59731 L 5.6864,-5.62716
 L 5.65685,-5.65685 L 5.62716,-5.6864 L 5.59731,-5.71578 L 5.5673,-5.74501 L 5.53715,-5.77408 L 5.50684,-5.80299
 L 5.47638,-5.83175 L 5.44577,-5.86034 L 5.41501,-5.88878 L 5.3841,-5.91705 L 5.35304,-5.94516 L 5.32184,-5.97311
 L 5.29049,-6.00089 L 5.259,-6.02851 L 5.22736,-6.05596 L 5.19558,-6.08325 L 5.16366,-6.11037 L 5.1316,-6.13732
 L 5.09939,-6.16411 L 5.06705,-6.19072 L 5.03456,-6.21717 L 5.00194,-6.24344 L 4.96918,-6.26955 L 4.93629,-6.29548
 L 4.90326,-6.32124 L 4.87009,-6.34683 L 4.83679,-6.37224 L 4.80336,-6.39748 L 4.7698,-6.42254 L 4.73611,-6.44743
 L 4.70228,-6.47214 L 4.66833,-6.49667 L 4.63425,-6.52102 L 4.60004,-6.5452 L 4.56571,-6.56919 L 4.53125,-6.59301
 L 4.49667,-6.61664 L 4.46196,-6.6401 L 4.42713,-6.66337 L 4.39218,-6.68646 L 4.35711,-6.70936 L 4.32192,-6.73209
 L 4.28661,-6.75462 L 4.25119,-6.77698 L 4.21565,-6.79914 L 4.17999,-6.82112 L 4.14422,-6.84291 L 4.10833,-6.86452
 L 4.07233,-6.88594 L 4.03622,-6.90716 L 4,-6.9282 L 3.96367,-6.94905 L 3.92723,-6.96971 L 3.89068,-6.99018
 L 3.85403,-7.01045 L 3.81727,-7.03054 L 3.78041,-7.05043 L 3.74344,-7.07013 L 3.70637,-7.08963 L 3.6692,-7.10894
 L 3.63192,-7.12805 L 3.59455,-7.14697 L 3.55708,-7.16569 L 3.51951,-7.18422 L 3.48185,-7.20255 L 3.44409,-7.22068
 L 3.40623,-7.23862 L 3.36829,-7.25635 L 3.33025,-7.27389 L 3.29211,-7.29123 L 3.25389,-7.30836 L 3.21558,-7.3253
 L 3.17718,-7.34204 L 3.1387,-7.35857 L 3.10012,-7.37491 L 3.06147,-7.39104 L 3.02273,-7.40696 L 2.9839,-7.42269
 L 2.945,-7.43821 L 2.90601,-7.45353 L 2.86694,-7.46864 L 2.8278,-7.48355 L 2.78858,-7.49826 L 2.74928,-7.51275
 L 2.7099,-7.52705 L 2.67045,-7.54113 L 2.63093,-7.55501 L 2.59134,-7.56868 L 2.55167,-7.58215 L 2.51194,-7.5954
 L 2.47214,-7.60845 L 2.43226,-7.62129 L 2.39233,-7.63392 L 2.35232,-7.64634 L 2.31225,-7.65856 L 2.27212,-7.67056
 L 2.23193,-7.68235 L 2.19167,-7.69393 L 2.15136,-7.7053 L 2.11098,-7.71646 L 2.07055,-7.72741 L 2.03006,-7.73814
 L 1.98952,-7.74867 L 1.94892,-7.75898 L 1.90827,-7.76907 L 1.86756,-7.77896 L 1.82681,-7.78863 L 1.786,-7.79809
 L 1.74515,-7.80733 L 1.70424,-7.81636 L 1.66329,-7.82518 L 1.6223,-7.83378 L 1.58126,-7.84217 L 1.54018,-7.85034
 L 1.49905,-7.8583 L 1.45788,-7.86604 L 1.41668,-7.87356 L 1.37543,-7.88087 L 1.33415,-7.88797 L 1.29283,-7.89485
 L 1.25148,-7.90151 L 1.21009,-7.90795 L 1.16866,-7.91418 L 1.12721,-7.92019 L 1.08572,-7.92598 L 1.04421,-7.93156
 L 1.00267,-7.93692 L 0.961095,-7.94206 L 0.919497,-7.94698 L 0.877874,-7.95169 L 0.836228,-7.95618 L 0.794558,-7.96044
 L 0.752867,-7.9645 L 0.711154,-7.96833 L 0.669423,-7.97194 L 0.627673,-7.97534 L 0.585906,-7.97852 L 0.544122,-7.98147
 L 0.502324,-7.98421 L 0.460512,-7.98673 L 0.418688,-7.98904 L 0.376852,-7.99112 L 0.335005,-7.99298 L 0.29315,-7.99463
 L 0.251286,-7.99605 L 0.209416,-7.99726 L 0.167539,-7.99825 L 0.125659,-7.99901 L 0.0837743,-7.99956 L 0.0418877,-7.99989
 L 0,-8 L -0.0418877,-7.99989 L -0.0837743,-7.99956 L -0.125659,-7.99901 L -0.167539,-7.99825 L -0.209416,-7.99726
 L -0.251286,-7.99605 L -0.29315,-7.99463 L -0.335005,-7.99298 L -0.376852,-7.99112 L -0.418688,-7.98904 L -0.460512,-7.98673
 L -0.502324,-7.98421 L -0.544122,-7.98147 L -0.585906,-7.97852 L -0.627673,-7.97534 L -0.669423,-7.97194 L -0.711154,-7.96833
 L -0.752867,-7.9645 L -0.794558,-7.96044 L -0.836228,-7.95618 L -0.877874,-7.95169 L -0.919497,-7.94698 L -0.961095,-7.94206
 L -1.00267,-7.93692 L -1.04421,-7.93156 L -1.08572,-7.92598 L -1.12721,-7.92019 L -1.16866,-7.91418 L -1.21009,-7.90795
 L -1.25148,-7.90151 L -1.29283,-7.89485 L -1.33415,-7.88797 L -1.37543,-7.88087 L -1.41668,-7.87356 L -1.45788,-7.86604
 L -1.49905,-7.8583 L -1.54018,-7.85034 L -1.58126,-7.84217 L -1.6223,-7.83378 L -1.66329,-7.82518 L -1.70424,-7.81636
 L -1.74515,-7.80733 L -1.786,-7.79809 L -1.82681,-7.78863 L -1.86756,-7.77896 L -1.90827,-7.76907 L -1.94892,-7.75898
 L -1.98952,-7.74867 L -2.03006,-7.73814 L -2.07055,-7.72741 L -2.11098,-7.71646 L -2.15136,-7.7053 L -2.19167,-7.69393
 L -2.23193,-7.68235 L -2.27212,-7.67056 L -2.31225,-7.65856 L -2.35232,-7.64634 L -2.39233,-7.63392 L -2.43226,-7.62129
 L -2.47214,-7.60845 L -2.51194,-7.5954 L -2.55167,-7.58215 L -2.59134,-7.56868 L -2.63093,-7.55501 L -2.67045,-7.54113
 L -2.7099,-7.52705 L -2.74928,-7.51275 L -2.78858,-7.49826 L -2.8278,-7.48355 L -2.86694,-7.46864 L -2.90601,-7.45353
 L -2.945,-7.43821 L -2.9839,-7.42269 L -3.02273,-7.40696 L -3.06147,-7.39104 L -3.10012,-7.37491 L -3.1387,-7.35857
 L -3.17718,-7.34204 L -3.21558,-7.3253 L -3.25389,-7.30836 L -3.29211,-7.29123 L -3.33025,-7.27389 L -3.36829,-7.25635
 L -3.40623,-7.23862 L -3.44409,-7.22068 L -3.48185,-7.20255 L -3.51951,-7.18422 L -3.55708,-7.16569 L -3.59455,-7.14697
 L -3.63192,-7.12805 L -3.6692,-7.10894 L -3.70637,-7.08963 L -3.74344,-7.07013 L -3.78041,-7.05043 L -3.81727,-7.03054
 L -3.85403,-7.01045 L -3.89068,-6.99018 L -3.92723,-6.96971 L -3.96367,-6.94905 L -4,-6.9282 L -4.03622,-6.90716
 L -4.07233,-6.88594 L -4.10833,-6.86452 L -4.14422,-6.84291 L -4.17999,-6.82112 L -4.21565,-6.79914 L -4.25119,-6.77698
 L -4.28661,-6.75462 L -4.32192,-6.73209 L -4.35711,-6.70936 L -4.39218,-6.68646 L -4.42713,-6.66337 L -4.46196,-6.6401
 L -4.49667,-6.61664 L -4.53125,-6.59301 L -4.56571,-6.56919 L -4.60004,-6.5452 L -4.63425,-6.52102 L -4.66833,-6.49667
 L -4.70228,-6.47214 L -4.73611,-6.44743 L -4.7698,-6.42254 L -4.80336,-6.39748 L -4.83679,-6.37224 L -4.87009,-6.34683
 L -4.90326,-6.32124 L -4.93629,-6.29548 L -4.96918,-6.26955 L -5.00194,-6.24344 L -5.03456,-6.21717 L -5.06705,-6.19072
 L -5.09939,-6.16411 L -5.1316,-6.13732 L -5.16366,-6.11037 L -5.19558,-6.08325 L -5.22736,-6.05596 L -5.259,-6.02851
 L -5.29049,-6.00089 L -5.32184,-5.97311 L -5.35304,-5.94516 L -5.3841,-5.91705 L -5.41501,-5.88878 L -5.44577,-5.86034
 L -5.47638,-5.83175 L -5.50684,-5.80299 L -5.53715,-5.77408 L -5.5673,-5.74501 L -5.59731,-5.71578 L -5.62716,-5.6864
 L -5.65685,-5.65685 L -5.6864,-5.62716 L -5.71578,-5.59731 L -5.74501,-5.5673 L -5.77408,-5.53715 L -5.80299,-5.50684
 L -5.83175,-5.47638 L -5.86034,-5.44577 L -5.88878,-5.41501 L -5.91705,-5.3841 L -5.94516,-5.35304 L -5.97311,-5.32184
 L -6.00089,-5.29049 L -6.02851,-5.259 L -6.05596,-5.22736 L -6.08325,-5.19558 L -6.11037,-5.16366 L -6.13732,-5.1316
 L -6.16411,-5.09939 L -6.19072,-5.06705 L -6.21717,-5.03456 L -6.24344,-5.00194 L -6.26955,-4.96918 L -6.29548,-4.93629
 L -6.32124,-4.90326 L -6.34683,-4.87009 L -6.37224,-4.83679 L -6.39748,-4.80336 L -6.42254,-4.7698 L -6.44743,-4.73611
 L -6.47214,-4.70228 L -6.49667,-4.66833 L -6.52102,-4.63425 L -6.5452,-4.60004 L -6.56919,-4.56571 L -6.59301,-4.53125
 L -6.61664,-4.49667 L -6.6401,-4.46196 L -6.66337,-4.42713 L -6.68646,-4.39218 L -6.70936,-4.35711 L -6.73209,-4.32192
 L -6.75462,-4.28661 L -6.77698,-4.25119 L -6.79914,-4.21565 L -6.82112,-4.17999 L -6.84291,-4.14422 L -6.86452,-4.10833
 L -6.88594,-4.07233 L -6.90716,-4.03622 L -6.9282,-4 L -120.628,192.934 L -120.649,192.971 L -120.67,193.007
 L -120.69,193.043 L -120.71,193.08 L -120.731,193.117 L -120.75,193.154 L -120.77,193.191 L -120.79,193.228
 L -120.809,193.265 L -120.828,193.302 L -120.847,193.34 L -120.866,193.377 L -120.884,193.415 L -120.903,193.452
 L -120.921,193.49 L -120.939,193.528 L -120.956,193.566 L -120.974,193.604 L -120.991,193.642 L -121.008,193.68
 L -121.025,193.719 L -121.042,193.757 L -121.059,193.795 L -121.075,193.834 L -121.091,193.873 L -121.107,193.911
 L -121.123,193.95 L -121.138,193.989 L -121.154,194.028 L -121.169,194.067 L -121.184,194.106 L -121.198,194.146
 L -121.213,194.185 L -121.227,194.224 L -121.241,194.264 L -121.255,194.303 L -121.269,194.343 L -121.282,194.383
 L -121.295,194.422 L -121.308,194.462 L -121.321,194.502 L -121.334,194.542 L -121.346,194.582 L -121.359,194.622
 L -121.371,194.662 L -121.382,194.702 L -121.394,194.743 L -121.405,194.783 L -121.416,194.823 L -121.427,194.864
 L -121.438,194.904 L -121.449,194.945 L -121.459,194.985 L -121.469,195.026 L -121.479,195.067 L -121.489,195.107
 L -121.498,195.148 L -121.507,195.189 L -121.516,195.23 L -121.525,195.271 L -121.534,195.312 L -121.542,195.353
 L -121.55,195.394 L -121.558,195.435 L -121.566,195.476 L -121.574,195.517 L -121.581,195.559 L -121.588,195.6
 L -121.595,195.641 L -121.602,195.683 L -121.608,195.724 L -121.614,195.766 L -121.62,195.807 L -121.626,195.848
 L -121.632,195.89 L -121.637,195.932 L -121.642,195.973 L -121.647,196.015 L -121.652,196.056 L -121.656,196.098
 L -121.66,196.14 L -121.664,196.181 L -121.668,196.223 L -121.672,196.265 L -121.675,196.307 L -121.679,196.348
 L -121.681,196.39 L -121.684,196.432 L -121.687,196.474 L -121.689,196.515 L -121.691,196.557 L -121.693,196.599
 L -121.695,196.641 L -121.696,196.683 L -121.697,196.725 L -121.698,196.767 L -121.699,196.809 L -121.7,196.85
 L -121.7,196.892 L -121.7,196.934 L -121.7,196.976 L -121.7,197.018 L -121.699,197.06 L -121.698,197.102
 L -121.697,197.144 L -121.696,197.185 L -121.695,197.227 L -121.693,197.269 L -121.691,197.311 L -121.689,197.353
 L -121.687,197.395 L -121.684,197.437 L -121.681,197.478 L -121.679,197.52 L -121.675,197.562 L -121.672,197.604
 L -121.668,197.645 L -121.664,197.687 L -121.66,197.729 L -121.656,197.77 L -121.652,197.812 L -121.647,197.854
 L -121.642,197.895 L -121.637,197.937 L -121.632,197.978 L -121.626,198.02 L -121.62,198.061 L -121.614,198.103
 L -121.608,198.144 L -121.602,198.186 L -121.595,198.227 L -121.588,198.268 L -121.581,198.31 L -121.574,198.351
 L -121.566,198.392 L -121.558,198.433 L -121.55,198.474 L -121.542,198.515 L -121.534,198.556 L -121.525,198.597
 L -121.516,198.638 L -121.507,198.679 L -121.498,198.72 L -121.489,198.761 L -121.479,198.802 L -121.469,198.842
 L -121.459,198.883 L -121.449,198.924 L -121.438,198.964 L -121.427,199.005 L -121.416,199.045 L -121.405,199.086
 L -121.394,199.126 L -121.382,199.166 L -121.371,199.206 L -121.359,199.246 L -121.346,199.286 L -121.334,199.327
 L -121.321,199.366 L -121.308,199.406 L -121.295,199.446 L -121.282,199.486 L -121.269,199.526 L -121.255,199.565
 L -121.241,199.605 L -121.227,199.644 L -121.213,199.683 L -121.198,199.723 L -121.184,199.762 L -121.169,199.801
 L -121.154,199.84 L -121.138,199.879 L -121.123,199.918 L -121.107,199.957 L -121.091,199.996 L -121.075,200.034
 L -121.059,200.073 L -121.042,200.111 L -121.025,200.15 L -121.008,200.188 L -120.991,200.226 L -120.974,200.264
 L -120.956,200.302 L -120.939,200.34 L -120.921,200.378 L -120.903,200.416 L -120.884,200.454 L -120.866,200.491
 L -120.847,200.529 L -120.828,200.566 L -120.809,200.603 L -120.79,200.641 L -120.77,200.678 L -120.75,200.715
 L -120.731,200.751 L -120.71,200.788 L -120.69,200.825 L -120.67,200.861 L -120.649,200.898 L -120.628,200.934
 L -120.607,200.97 L -120.586,201.007 L -120.565,201.043 L -120.543,201.078 L -120.521,201.114 L -120.499,201.15
 L -120.477,201.185 L -120.455,201.221 L -120.432,201.256 L -120.409,201.291 L -120.386,201.326 L -120.363,201.361
 L -120.34,201.396 L -120.317,201.431 L -120.293,201.465 L -120.269,201.5 L -120.245,201.534 L -120.221,201.568
 L -120.197,201.603 L -120.172,201.636 L -120.147,201.67 L -120.123,201.704 L -120.097,201.738 L -120.072,201.771
 L -120.047,201.804 L -120.021,201.837 L -119.995,201.87 L -119.97,201.903 L -119.943,201.936 L -119.917,201.969
 L -119.891,202.001 L -119.864,202.034 L -119.837,202.066 L -119.81,202.098 L -119.783,202.13 L -119.756,202.162
 L -119.729,202.193 L -119.701,202.225 L -119.673,202.256 L -119.645,202.287 L -119.617,202.318 L -119.589,202.349
 L -119.56,202.38 L -119.532,202.411 L -119.503,202.441 L -119.474,202.471 L -119.445,202.501 L -119.416,202.531
 L -119.386,202.561 L -119.357,202.591 L -119.327,202.621 L -119.297,202.65 L -119.267,202.679 L -119.237,202.708
 L -119.207,202.737 L -119.176,202.766 L -119.146,202.795 L -119.115,202.823 L -119.084,202.851 L -119.053,202.879
 L -119.022,202.907 L -118.99,202.935 L -118.959,202.963 L -118.927,202.99 L -118.896,203.017 L -118.864,203.045
 L -118.832,203.071 L -118.799,203.098 L -118.767,203.125 L -118.735,203.151 L -118.702,203.178 L -118.669,203.204
 L -118.636,203.23 L -118.603,203.255 L -118.57,203.281 L -118.537,203.306 L -118.503,203.332 L -118.47,203.357
 L -118.436,203.382 L -118.402,203.406 L -118.368,203.431 L -118.334,203.455 L -118.3,203.479 L -118.266,203.503
 L -118.231,203.527 L -118.197,203.551 L -118.162,203.574 L -118.127,203.598 L -118.092,203.621 L -118.057,203.644
 L -118.022,203.666 L -117.987,203.689 L -117.951,203.711 L -117.916,203.733 L -117.88,203.755 L -117.844,203.777
 L -117.808,203.799 L -117.772,203.82 L -117.736,203.841 L -117.7,203.862 L -117.664,203.883 L -117.627,203.904
 L -117.591,203.924 L -117.554,203.945 L -117.517,203.965 L -117.48,203.985 L -117.443,204.004 L -117.406,204.024
 L -117.369,204.043 L -117.332,204.062 L -117.295,204.081 L -117.257,204.1 L -117.22,204.118 L -117.182,204.137
 L -117.144,204.155 L -117.106,204.173 L -117.068,204.191 L -117.03,204.208 L -116.992,204.225 L -116.954,204.243
 L -116.916,204.259 L -116.877,204.276 L -116.839,204.293 L -116.8,204.309 L -116.761,204.325 L -116.723,204.341
 L -116.684,204.357 L -116.645,204.372 L -116.606,204.388 L -116.567,204.403 L -116.528,204.418 L -116.489,204.432
 L -116.449,204.447 L -116.41,204.461 L -116.37,204.475 L -116.331,204.489 L -116.291,204.503 L -116.252,204.516
 L -116.212,204.53 L -116.172,204.543 L -116.132,204.555 L -116.092,204.568 L -116.052,204.581 L -116.012,204.593
 L -115.972,204.605 L -115.932,204.617 L -115.892,204.628 L -115.851,204.639 L -115.811,204.651 L -115.771,204.662
 L -115.73,204.672 L -115.69,204.683 L -115.649,204.693 L -115.608,204.703 L -115.568,204.713 L -115.527,204.723
 L -115.486,204.732 L -115.445,204.742 L -115.404,204.751 L -115.363,204.759 L -115.322,204.768 L -115.281,204.776
 L -115.24,204.785 L -115.199,204.792 L -115.158,204.8 L -115.117,204.808 L -115.075,204.815 L -115.034,204.822
 L -114.993,204.829 L -114.951,204.836 L -114.91,204.842 L -114.869,204.848 L -114.827,204.854 L -114.786,204.86
 L -114.744,204.866 L -114.703,204.871 L -114.661,204.876 L -114.619,204.881 L -114.578,204.886 L -114.536,204.89
 L -114.495,204.895 L -114.453,204.899 L -114.411,204.903 L -114.369,204.906 L -114.328,204.91 L -114.286,204.913
 L -114.244,204.916 L -114.202,204.918 L -114.161,204.921 L -114.119,204.923 L -114.077,204.925 L -114.035,204.927
 L -113.993,204.929 L -113.951,204.93 L -113.909,204.931 L -113.868,204.932 L -113.826,204.933 L -113.784,204.934
 L -113.742,204.934 L -113.7,204.934 L 113.7,204.934 z
M -2.59808,-1.5 L 2.59808,-1.5 L 0,3 z
M -5.54256,23.0579 L -5.52573,23.0289 L -5.50875,23 L -5.49162,22.9712 L -5.47433,22.9425 L -5.4569,22.9139
 L -5.43931,22.8854 L -5.42158,22.8569 L -5.4037,22.8286 L -5.38567,22.8004 L -5.36749,22.7722 L -5.34917,22.7441
 L -5.3307,22.7162 L -5.31208,22.6883 L -5.29332,22.6606 L -5.27441,22.6329 L -5.25535,22.6053 L -5.23616,22.5779
 L -5.21682,22.5505 L -5.19733,22.5232 L -5.17771,22.4961 L -5.15794,22.469 L -5.13803,22.4421 L -5.11798,22.4152
 L -5.09779,22.3885 L -5.07746,22.3618 L -5.05699,22.3353 L -5.03638,22.3089 L -5.01564,22.2825 L -4.99475,22.2563
 L -4.97373,22.2302 L -4.95258,22.2043 L -4.93128,22.1784 L -4.90986,22.1526 L -4.88829,22.127 L -4.8666,22.1014
 L -4.84477,22.076 L -4.82281,22.0507 L -4.80071,22.0255 L -4.77848,22.0004 L -4.75613,21.9755 L -4.73364,21.9506
 L -4.71102,21.9259 L -4.68827,21.9013 L -4.6654,21.8768 L -4.6424,21.8524 L -4.61927,21.8282 L -4.59601,21.804
 L -4.57263,21.78 L -4.54912,21.7562 L -4.52548,21.7324 L -4.50173,21.7088 L -4.47785,21.6853 L -4.45384,21.6619
 L -4.42972,21.6386 L -4.40547,21.6155 L -4.3811,21.5925 L -4.35661,21.5696 L -4.33201,21.5469 L -4.30728,21.5243
 L -4.28244,21.5018 L -4.25747,21.4794 L -4.2324,21.4572 L -4.2072,21.4351 L -4.18189,21.4131 L -4.15647,21.3913
 L -4.13093,21.3696 L -4.10528,21.348 L -4.07951,21.3266 L -4.05364,21.3053 L -4.02765,21.2842 L -4.00155,21.2631
 L -3.97535,21.2423 L -3.94903,21.2215 L -3.92261,21.2009 L -3.89607,21.1804 L -3.86943,21.1601 L -3.84269,21.1399
 L -3.81584,21.1199 L -3.78888,21.0999 L -3.76183,21.0802 L -3.73466,21.0606 L -3.7074,21.0411 L -3.68003,21.0217
 L -3.65257,21.0025 L -3.625,20.9835 L -3.59733,20.9646 L -3.56957,20.9458 L -3.54171,20.9272 L -3.51375,20.9087
 L -3.48569,20.8904 L -3.45754,20.8722 L -3.42929,20.8542 L -3.40095,20.8363 L -3.37252,20.8186 L -3.34399,20.801
 L -3.31537,20.7836 L -3.28666,20.7663 L -3.25787,20.7491 L -3.22898,20.7322 L -3.2,20.7153 L -3.17094,20.6986
 L -3.14178,20.6821 L -3.11255,20.6657 L -3.08322,20.6495 L -3.05382,20.6335 L -3.02432,20.6175 L -2.99475,20.6018
 L -2.96509,20.5862 L -2.93536,20.5707 L -2.90554,20.5554 L -2.87564,20.5403 L -2.84567,20.5253 L -2.81561,20.5105
 L -2.78548,20.4959 L -2.75527,20.4813 L -2.72499,20.467 L -2.69463,20.4528 L -2.6642,20.4388 L -2.63369,20.4249
 L -2.60311,20.4112 L -2.57247,20.3976 L -2.54175,20.3843 L -2.51096,20.371 L -2.4801,20.358 L -2.44917,20.3451
 L -2.41818,20.3323 L -2.38712,20.3197 L -2.356,20.3073 L -2.32481,20.2951 L -2.29355,20.283 L -2.26224,20.271
 L -2.23086,20.2593 L -2.19942,20.2477 L -2.16792,20.2363 L -2.13636,20.225 L -2.10475,20.2139 L -2.07307,20.2029
 L -2.04134,20.1922 L -2.00955,20.1816 L -1.97771,20.1711 L -1.94581,20.1609 L -1.91386,20.1508 L -1.88186,20.1408
 L -1.8498,20.131 L -1.8177,20.1214 L -1.78554,20.112 L -1.75334,20.1027 L -1.72109,20.0936 L -1.68879,20.0847
 L -1.65644,20.076 L -1.62405,20.0674 L -1.59162,20.059 L -1.55914,20.0507 L -1.52661,20.0426 L -1.49405,20.0347
 L -1.46145,20.027 L -1.4288,20.0194 L -1.39612,20.012 L -1.36339,20.0048 L -1.33063,19.9977 L -1.29784,19.9909
 L -1.26501,19.9842 L -1.23214,19.9776 L -1.19924,19.9713 L -1.16631,19.9651 L -1.13334,19.959 L -1.10035,19.9532
 L -1.06732,19.9475 L -1.03426,19.942 L -1.00118,19.9367 L -0.968069,19.9315 L -0.934931,19.9265 L -0.901768,19.9217
 L -0.86858,19.9171 L -0.835368,19.9126 L -0.802133,19.9084 L -0.768876,19.9042 L -0.735598,19.9003 L -0.7023,19.8965
 L -0.668982,19.893 L -0.635646,19.8895 L -0.602293,19.8863 L -0.568924,19.8832 L -0.535538,19.8803 L -0.502138,19.8776
 L -0.468724,19.8751 L -0.435298,19.8727 L -0.401859,19.8705 L -0.36841,19.8685 L -0.33495,19.8667 L -0.301481,19.865
 L -0.268004,19.8635 L -0.23452,19.8622 L -0.201029,19.861 L -0.167532,19.8601 L -0.134031,19.8593 L -0.100527,19.8587
 L -0.0670194,19.8582 L -0.0335102,19.858 L 0,19.8579 L 0.0335102,19.858 L 0.0670194,19.8582 L 0.100527,19.8587
 L 0.134031,19.8593 L 0.167532,19.8601 L 0.201029,19.861 L 0.23452,19.8622 L 0.268004,19.8635 L 0.301481,19.865
 L 0.33495,19.8667 L 0.36841,19.8685 L 0.401859,19.8705 L 0.435298,19.8727 L 0.468724,19.8751 L 0.502138,19.8776
 L 0.535538,19.8803 L 0.568924,19.8832 L 0.602293,19.8863 L 0.635646,19.8895 L 0.668982,19.893 L 0.7023,19.8965
 L 0.735598,19.9003 L 0.768876,19.9042 L 0.802133,19.9084 L 0.835368,19.9126 L 0.86858,19.9171 L 0.901768,19.9217
 L 0.934931,19.9265 L 0.968069,19.9315 L 1.00118,19.9367 L 1.03426,19.942 L 1.06732,19.9475 L 1.10035,19.9532
 L 1.13334,19.959 L 1.16631,19.9651 L 1.19924,19.9713 L 1.23214,19.9776 L 1.26501,19.9842 L 1.29784,19.9909
 L 1.33063,19.9977 L 1.36339,20.0048 L 1.39612,20.012 L 1.4288,20.0194 L 1.46145,20.027 L 1.49405,20.0347
 L 1.52661,20.0426 L 1.55914,20.0507 L 1.59162,20.059 L 1.62405,20.0674 L 1.65644,20.076 L 1.68879,20.0847
 L 1.72109,20.0936 L 1.75334,20.1027 L 1.78554,20.112 L 1.8177,20.1214 L 1.8498,20.131 L 1.88186,20.1408
 L 1.91386,20.1508 L 1.94581,20.1609 L 1.97771,20.1711 L 2.00955,20.1816 L 2.04134,20.1922 L 2.07307,20.2029
 L 2.10475,20.2139 L 2.13636,20.225 L 2.16792,20.2363 L 2.19942,20.2477 L 2.23086,20.2593 L 2.26224,20.271
 L 2.29355,20.283 L 2.32481,20.2951 L 2.356,20.3073 L 2.38712,20.3197 L 2.41818,20.3323 L 2.44917,20.3451
 L 2.4801,20.358 L 2.51096,20.371 L 2.54175,20.3843 L 2.57247,20.3976 L 2.60311,20.4112 L 2.63369,20.4249
 L 2.6642,20.4388 L 2.69463,20.4528 L 2.72499,20.467 L 2.75527,20.4813 L 2.78548,20.4959 L 2.81561,20.5105
 L 2.84567,20.5253 L 2.87564,20.5403 L 2.90554,20.5554 L 2.93536,20.5707 L 2.96509,20.5862 L 2.99475,20.6018
 L 3.02432,20.6175 L 3.05382,20.6335 L 3.08322,20.6495 L 3.11255,20.6657 L 3.14178,20.6821 L 3.17094,20.6986
 L 3.2,20.7153 L 3.22898,20.7322 L 3.25787,20.7491 L 3.28666,20.7663 L 3.31537,20.7836 L 3.34399,20.801
 L 3.37252,20.8186 L 3.40095,20.8363 L 3.42929,20.8542 L 3.45754,20.8722 L 3.48569,20.8904 L 3.51375,20.9087
 L 3.54171,20.9272 L 3.56957,20.9458 L 3.59733,20.9646 L 3.625,20.9835 L 3.65257,21.0025 L 3.68003,21.0217
 L 3.7074,21.0411 L 3.73466,21.0606 L 3.76183,21.0802 L 3.78888,21.0999 L 3.81584,21.1199 L 3.84269,21.1399
 L 3.86943,21.1601 L 3.89607,21.1804 L 3.92261,21.2009 L 3.94903,21.2215 L 3.97535,21.2423 L 4.00155,21.2631
 L 4.02765,21.2842 L 4.05364,21.3053 L 4.07951,21.3266 L 4.10528,21.348 L 4.13093,21.3696 L 4.15647,21.3913
 L 4.18189,21.4131 L 4.2072,21.4351 L 4.2324,21.4572 L 4.25747,21.4794 L 4.28244,21.5018 L 4.30728,21.5243
 L 4.33201,21.5469 L 4.35661,21.5696 L 4.3811,21.5925 L 4.40547,21.6155 L 4.42972,21.6386 L 4.45384,21.6619
 L 4.47785,21.6853 L 4.50173,21.7088 L 4.52548,21.7324 L 4.54912,21.7562 L 4.57263,21.78 L 4.59601,21.804
 L 4.61927,21.8282 L 4.6424,21.8524 L 4.6654,21.8768 L 4.68827,21.9013 L 4.71102,21.9259 L 4.73364,21.9506
 L 4.75613,21.9755 L 4.77848,22.0004 L 4.80071,22.0255 L 4.82281,22.0507 L 4.84477,22.076 L 4.8666,22.1014
 L 4.88829,22.127 L 4.90986,22.1526 L 4.93128,22.1784 L 4.95258,22.2043 L 4.97373,22.2302 L 4.99475,22.2563
 L 5.01564,22.2825 L 5.03638,22.3089 L 5.05699,22.3353 L 5.07746,22.3618 L 5.09779,22.3885 L 5.11798,22.4152
 L 5.13803,22.4421 L 5.15794,22.469 L 5.17771,22.4961 L 5.19733,22.5232 L 5.21682,22.5505 L 5.23616,22.5779
 L 5.25535,22.6053 L 5.27441,22.6329 L 5.29332,22.6606 L 5.31208,22.6883 L 5.3307,22.7162 L 5.34917,22.7441
 L 5.36749,22.7722 L 5.38567,22.8004 L 5.4037,22.8286 L 5.42158,22.8569 L 5.43931,22.8854 L 5.4569,22.9139
 L 5.47433,22.9425 L 5.49162,22.9712 L 5.50875,23 L 5.52573,23.0289 L 5.54256,23.0579 L 44.4613,90.4671
 L -44.4613,90.4671 z
M -31.0231,47.7335 L -25.8269,47.7335 L -28.425,52.2335 z
M 25.8269,47.7335 L 31.0231,47.7335 L 28.425,52.2335 z
M -59.4481,96.9671 L -54.2519,96.9671 L -56.85,101.467 z
M -2.59808,96.9671 L 2.59808,96.9671 L 0,101.467 z
M 54.2519,96.9671 L 59.4481,96.9671 L 56.85,101.467 z
M -42.9936,106.467 L 42.9936,106.467 L 0,180.934 z
M -90.9935,190.205 L -91.027,190.205 L -91.0605,190.204 L -91.094,190.204 L -91.1275,190.203 L -91.161,190.202
 L -91.1945,190.201 L -91.228,190.2 L -91.2615,190.198 L -91.295,190.196 L -91.3284,190.195 L -91.3619,190.193
 L -91.3953,190.19 L -91.4287,190.188 L -91.4621,190.186 L -91.4955,190.183 L -91.5289,190.18 L -91.5623,190.177
 L -91.5956,190.174 L -91.629,190.17 L -91.6623,190.167 L -91.6956,190.163 L -91.7289,190.159 L -91.7621,190.155
 L -91.7954,190.15 L -91.8286,190.146 L -91.8618,190.141 L -91.8949,190.137 L -91.9281,190.132 L -91.9612,190.126
 L -91.9943,190.121 L -92.0273,190.116 L -92.0603,190.11 L -92.0933,190.104 L -92.1263,190.098 L -92.1592,190.092
 L -92.1921,190.086 L -92.225,190.079 L -92.2578,190.072 L -92.2906,190.065 L -92.3234,190.058 L -92.3561,190.051
 L -92.3888,190.044 L -92.4214,190.036 L -92.4541,190.028 L -92.4866,190.02 L -92.5191,190.012 L -92.5516,190.004
 L -92.5841,189.996 L -92.6164,189.987 L -92.6488,189.978 L -92.6811,189.969 L -92.7133,189.96 L -92.7455,189.951
 L -92.7777,189.942 L -92.8098,189.932 L -92.8419,189.922 L -92.8739,189.912 L -92.9058,189.902 L -92.9377,189.892
 L -92.9696,189.882 L -93.0013,189.871 L -93.0331,189.86 L -93.0647,189.849 L -93.0964,189.838 L -93.1279,189.827
 L -93.1594,189.815 L -93.1909,189.804 L -93.2222,189.792 L -93.2536,189.78 L -93.2848,189.768 L -93.316,189.756
 L -93.3471,189.743 L -93.3782,189.731 L -93.4092,189.718 L -93.4401,189.705 L -93.471,189.692 L -93.5017,189.679
 L -93.5325,189.665 L -93.5631,189.652 L -93.5937,189.638 L -93.6242,189.624 L -93.6546,189.61 L -93.685,189.596
 L -93.7153,189.582 L -93.7455,189.567 L -93.7756,189.553 L -93.8057,189.538 L -93.8356,189.523 L -93.8655,189.508
 L -93.8954,189.492 L -93.9251,189.477 L -93.9548,189.461 L -93.9843,189.446 L -94.0138,189.43 L -94.0432,189.414
 L -94.0725,189.397 L -94.1018,189.381 L -94.1309,189.364 L -94.16,189.348 L -94.189,189.331 L -94.2179,189.314
 L -94.2467,189.297 L -94.2754,189.28 L -94.304,189.262 L -94.3325,189.245 L -94.361,189.227 L -94.3893,189.209
 L -94.4175,189.191 L -94.4457,189.173 L -94.4737,189.154 L -94.5017,189.136 L -94.5296,189.117 L -94.5573,189.099
 L -94.585,189.08 L -94.6126,189.061 L -94.64,189.041 L -94.6674,189.022 L -94.6947,189.003 L -94.7218,188.983
 L -94.7489,188.963 L -94.7758,188.943 L -94.8027,188.923 L -94.8294,188.903 L -94.8561,188.883 L -94.8826,188.862
 L -94.909,188.842 L -94.9353,188.821 L -94.9616,188.8 L -94.9877,188.779 L -95.0136,188.758 L -95.0395,188.737
 L -95.0653,188.715 L -95.0909,188.694 L -95.1165,188.672 L -95.1419,188.65 L -95.1672,188.628 L -95.1924,188.606
 L -95.2175,188.584 L -95.2424,188.561 L -95.2673,188.539 L -95.292,188.516 L -95.3166,188.494 L -95.3411,188.471
 L -95.3655,188.448 L -95.3897,188.424 L -95.4138,188.401 L -95.4378,188.378 L -95.4617,188.354 L -95.4855,188.331
 L -95.5091,188.307 L -95.5326,188.283 L -95.556,188.259 L -95.5793,188.235 L -95.6024,188.211 L -95.6254,188.186
 L -95.6483,188.162 L -95.671,188.137 L -95.6936,188.113 L -95.7161,188.088 L -95.7385,188.063 L -95.7607,188.038
 L -95.7828,188.012 L -95.8048,187.987 L -95.8266,187.962 L -95.8483,187.936 L -95.8699,187.911 L -95.8913,187.885
 L -95.9126,187.859 L -95.9337,187.833 L -95.9548,187.807 L -95.9756,187.781 L -95.9964,187.754 L -96.017,187.728
 L -96.0375,187.701 L -96.0578,187.675 L -96.078,187.648 L -96.098,187.621 L -96.1179,187.594 L -96.1377,187.567
 L -96.1573,187.54 L -96.1768,187.513 L -96.1962,187.485 L -96.2154,187.458 L -96.2344,187.43 L -96.2533,187.403
 L -96.2721,187.375 L -96.2907,187.347 L -96.3092,187.319 L -96.3275,187.291 L -96.3457,187.263 L -96.3637,187.235
 L -96.3816,187.206 L -96.3993,187.178 L -96.4169,187.149 L -96.4343,187.121 L -96.4516,187.092 L -96.4687,187.063
 L -96.4857,187.034 L -96.5026,187.005 L -96.5192,186.976 L -96.5358,186.947 L -96.5521,186.918 L -96.5684,186.888
 L -96.5844,186.859 L -96.6003,186.83 L -96.6161,186.8 L -96.6317,186.77 L -96.6472,186.741 L -96.6624,186.711
 L -96.6776,186.681 L -96.6926,186.651 L -96.7074,186.621 L -96.722,186.591 L -96.7365,186.561 L -96.7509,186.53
 L -96.7651,186.5 L -96.7791,186.469 L -96.793,186.439 L -96.8067,186.408 L -96.8202,186.378 L -96.8336,186.347
 L -96.8469,186.316 L -96.8599,186.285 L -96.8728,186.254 L -96.8856,186.223 L -96.8982,186.192 L -96.9106,186.161
 L -96.9228,186.13 L -96.9349,186.099 L -96.9468,186.067 L -96.9586,186.036 L -96.9702,186.005 L -96.9816,185.973
 L -96.9929,185.942 L -97.004,185.91 L -97.0149,185.878 L -97.0257,185.847 L -97.0363,185.815 L -97.0468,185.783
 L -97.057,185.751 L -97.0671,185.719 L -97.0771,185.687 L -97.0868,185.655 L -97.0964,185.623 L -97.1059,185.591
 L -97.1151,185.559 L -97.1242,185.526 L -97.1332,185.494 L -97.1419,185.462 L -97.1505,185.429 L -97.1589,185.397
 L -97.1672,185.364 L -97.1753,185.332 L -97.1832,185.299 L -97.1909,185.267 L -97.1985,185.234 L -97.2059,185.201
 L -97.2131,185.169 L -97.2201,185.136 L -97.227,185.103 L -97.2337,185.07 L -97.2403,185.037 L -97.2466,185.004
 L -97.2528,184.972 L -97.2589,184.939 L -97.2647,184.906 L -97.2704,184.873 L -97.2759,184.839 L -97.2812,184.806
 L -97.2864,184.773 L -97.2913,184.74 L -97.2962,184.707 L -97.3008,184.674 L -97.3052,184.641 L -97.3095,184.607
 L -97.3136,184.574 L -97.3176,184.541 L -97.3214,184.508 L -97.3249,184.474 L -97.3284,184.441 L -97.3316,184.408
 L -97.3347,184.374 L -97.3376,184.341 L -97.3403,184.307 L -97.3428,184.274 L -97.3452,184.241 L -97.3474,184.207
 L -97.3494,184.174 L -97.3512,184.14 L -97.3529,184.107 L -97.3544,184.073 L -97.3557,184.04 L -97.3568,184.006
 L -97.3578,183.973 L -97.3586,183.939 L -97.3592,183.906 L -97.3596,183.872 L -97.3599,183.839 L -97.36,183.805
 L -97.3599,183.772 L -97.3596,183.738 L -97.3592,183.705 L -97.3586,183.671 L -97.3578,183.638 L -97.3568,183.604
 L -97.3557,183.571 L -97.3544,183.537 L -97.3529,183.504 L -97.3512,183.47 L -97.3494,183.437 L -97.3474,183.403
 L -97.3452,183.37 L -97.3428,183.337 L -97.3403,183.303 L -97.3376,183.27 L -97.3347,183.236 L -97.3316,183.203
 L -97.3284,183.17 L -97.3249,183.136 L -97.3214,183.103 L -97.3176,183.07 L -97.3136,183.036 L -97.3095,183.003
 L -97.3052,182.97 L -97.3008,182.937 L -97.2962,182.903 L -97.2913,182.87 L -97.2864,182.837 L -97.2812,182.804
 L -97.2759,182.771 L -97.2704,182.738 L -97.2647,182.705 L -97.2589,182.672 L -97.2528,182.639 L -97.2466,182.606
 L -97.2403,182.573 L -97.2337,182.54 L -97.227,182.507 L -97.2201,182.475 L -97.2131,182.442 L -97.2059,182.409
 L -97.1985,182.376 L -97.1909,182.344 L -97.1832,182.311 L -97.1753,182.279 L -97.1672,182.246 L -97.1589,182.214
 L -97.1505,182.181 L -97.1419,182.149 L -97.1332,182.116 L -97.1242,182.084 L -97.1151,182.052 L -97.1059,182.02
 L -97.0964,181.988 L -97.0868,181.955 L -97.0771,181.923 L -97.0671,181.891 L -97.057,181.859 L -97.0468,181.828
 L -97.0363,181.796 L -97.0257,181.764 L -97.0149,181.732 L -97.004,181.7 L -96.9929,181.669 L -96.9816,181.637
 L -96.9702,181.606 L -96.9586,181.574 L -96.9468,181.543 L -96.9349,181.512 L -96.9228,181.48 L -96.9106,181.449
 L -96.8982,181.418 L -96.8856,181.387 L -96.8728,181.356 L -96.8599,181.325 L -96.8469,181.294 L -96.8336,181.263
 L -96.8202,181.233 L -96.8067,181.202 L -96.793,181.172 L -96.7791,181.141 L -96.7651,181.111 L -96.7509,181.08
 L -96.7365,181.05 L -96.722,181.02 L -96.7074,180.99 L -96.6926,180.96 L -96.6776,180.93 L -96.6624,180.9
 L -96.6472,180.87 L -96.6317,180.84 L -96.6161,180.81 L -96.6003,180.781 L -96.5844,180.751 L -96.5684,180.722
 L -96.5521,180.693 L -96.5358,180.663 L -96.5192,180.634 L -96.5026,180.605 L -57.5838,113.196 L -13.1226,190.205
 L -90.96,190.205 z
M 57.5838,113.196 L 96.5026,180.605 L 96.5192,180.634 L 96.5358,180.663 L 96.5521,180.693 L 96.5684,180.722
 L 96.5844,180.751 L 96.6003,180.781 L 96.6161,180.81 L 96.6317,180.84 L 96.6472,180.87 L 96.6624,180.9
 L 96.6776,180.93 L 96.6926,180.96 L 96.7074,180.99 L 96.722,181.02 L 96.7365,181.05 L 96.7509,181.08
 L 96.7651,181.111 L 96.7791,181.141 L 96.793,181.172 L 96.8067,181.202 L 96.8202,181.233 L 96.8336,181.263
 L 96.8469,181.294 L 96.8599,181.325 L 96.8728,181.356 L 96.8856,181.387 L 96.8982,181.418 L 96.9106,181.449
 L 96.9228,181.48 L 96.9349,181.512 L 96.9468,181.543 L 96.9586,181.574 L 96.9702,181.606 L 96.9816,181.637
 L 96.9929,181.669 L 97.004,181.7 L 97.0149,181.732 L 97.0257,181.764 L 97.0363,181.796 L 97.0468,181.828
 L 97.057,181.859 L 97.0671,181.891 L 97.0771,181.923 L 97.0868,181.955 L 97.0964,181.988 L 97.1059,182.02
 L 97.1151,182.052 L 97.1242,182.084 L 97.1332,182.116 L 97.1419,182.149 L 97.1505,182.181 L 97.1589,182.214
 L 97.1672,182.246 L 97.1753,182.279 L 97.1832,182.311 L 97.1909,182.344 L 97.1985,182.376 L 97.2059,182.409
 L 97.2131,182.442 L 97.2201,182.475 L 97.227,182.507 L 97.2337,182.54 L 97.2403,182.573 L 97.2466,182.606
 L 97.2528,182.639 L 97.2589,182.672 L 97.2647,182.705 L 97.2704,182.738 L 97.2759,182.771 L 97.2812,182.804
 L 97.2864,182.837 L 97.2913,182.87 L 97.2962,182.903 L 97.3008,182.937 L 97.3052,182.97 L 97.3095,183.003
 L 97.3136,183.036 L 97.3176,183.07 L 97.3214,183.103 L 97.3249,183.136 L 97.3284,183.17 L 97.3316,183.203
 L 97.3347,183.236 L 97.3376,183.27 L 97.3403,183.303 L 97.3428,183.337 L 97.3452,183.37 L 97.3474,183.403
 L 97.3494,183.437 L 97.3512,183.47 L 97.3529,183.504 L 97.3544,183.537 L 97.3557,183.571 L 97.3568,183.604
 L 97.3578,183.638 L 97.3586,183.671 L 97.3592,183.705 L 97.3596,183.738 L 97.3599,183.772 L 97.36,183.805
 L 97.3599,183.839 L 97.3596,183.872 L 97.3592,183.906 L 97.3586,183.939 L 97.3578,183.973 L 97.3568,184.006
 L 97.3557,184.04 L 97.3544,184.073 L 97.3529,184.107 L 97.3512,184.14 L 97.3494,184.174 L 97.3474,184.207
 L 97.3452,184.241 L 97.3428,184.274 L 97.3403,184.307 L 97.3376,184.341 L 97.3347,184.374 L 97.3316,184.408
 L 97.3284,184.441 L 97.3249,184.474 L 97.3214,184.508 L 97.3176,184.541 L 97.3136,184.574 L 97.3095,184.607
 L 97.3052,184.641 L 97.3008,184.674 L 97.2962,184.707 L 97.2913,184.74 L 97.2864,184.773 L 97.2812,184.806
 L 97.2759,184.839 L 97.2704,184.873 L 97.2647,184.906 L 97.2589,184.939 L 97.2528,184.972 L 97.2466,185.004
 L 97.2403,185.037 L 97.2337,185.07 L 97.227,185.103 L 97.2201,185.136 L 97.2131,185.169 L 97.2059,185.201
 L 97.1985,185.234 L 97.1909,185.267 L 97.1832,185.299 L 97.1753,185.332 L 97.1672,185.364 L 97.1589,185.397
 L 97.1505,185.429 L 97.1419,185.462 L 97.1332,185.494 L 97.1242,185.526 L 97.1151,185.559 L 97.1059,185.591
 L 97.0964,185.623 L 97.0868,185.655 L 97.0771,185.687 L 97.0671,185.719 L 97.057,185.751 L 97.0468,185.783
 L 97.0363,185.815 L 97.0257,185.847 L 97.0149,185.878 L 97.004,185.91 L 96.9929,185.942 L 96.9816,185.973
 L 96.9702,186.005 L 96.9586,186.036 L 96.9468,186.067 L 96.9349,186.099 L 96.9228,186.13 L 96.9106,186.161
 L 96.8982,186.192 L 96.8856,186.223 L 96.8728,186.254 L 96.8599,186.285 L 96.8469,186.316 L 96.8336,186.347
 L 96.8202,186.378 L 96.8067,186.408 L 96.793,186.439 L 96.7791,186.469 L 96.7651,186.5 L 96.7509,186.53
 L 96.7365,186.561 L 96.722,186.591 L 96.7074,186.621 L 96.6926,186.651 L 96.6776,186.681 L 96.6624,186.711
 L 96.6472,186.741 L 96.6317,186.77 L 96.6161,186.8 L 96.6003,186.83 L 96.5844,186.859 L 96.5684,186.888
 L 96.5521,186.918 L 96.5358,186.947 L 96.5192,186.976 L 96.5026,187.005 L 96.4857,187.034 L 96.4687,187.063
 L 96.4516,187.092 L 96.4343,187.121 L 96.4169,187.149 L 96.3993,187.178 L 96.3816,187.206 L 96.3637,187.235
 L 96.3457,187.263 L 96.3275,187.291 L 96.3092,187.319 L 96.2907,187.347 L 96.2721,187.375 L 96.2533,187.403
 L 96.2344,187.43 L 96.2154,187.458 L 96.1962,187.485 L 96.1768,187.513 L 96.1573,187.54 L 96.1377,187.567
 L 96.1179,187.594 L 96.098,187.621 L 96.078,187.648 L 96.0578,187.675 L 96.0375,187.701 L 96.017,187.728
 L 95.9964,187.754 L 95.9756,187.781 L 95.9548,187.807 L 95.9337,187.833 L 95.9126,187.859 L 95.8913,187.885
 L 95.8699,187.911 L 95.8483,187.936 L 95.8266,187.962 L 95.8048,187.987 L 95.7828,188.012 L 95.7607,188.038
 L 95.7385,188.063 L 95.7161,188.088 L 95.6936,188.113 L 95.671,188.137 L 95.6483,188.162 L 95.6254,188.186
 L 95.6024,188.211 L 95.5793,188.235 L 95.556,188.259 L 95.5326,188.283 L 95.5091,188.307 L 95.4855,188.331
 L 95.4617,188.354 L 95.4378,188.378 L 95.4138,188.401 L 95.3897,188.424 L 95.3655,188.448 L 95.3411,188.471
 L 95.3166,188.494 L 95.292,188.516 L 95.2673,188.539 L 95.2424,188.561 L 95.2175,188.584 L 95.1924,188.606
 L 95.1672,188.628 L 95.1419,188.65 L 95.1165,188.672 L 95.0909,188.694 L 95.0653,188.715 L 95.0395,188.737
 L 95.0136,188.758 L 94.9877,188.779 L 94.9616,188.8 L 94.9353,188.821 L 94.909,188.842 L 94.8826,188.862
 L 94.8561,188.883 L 94.8294,188.903 L 94.8027,188.923 L 94.7758,188.943 L 94.7489,188.963 L 94.7218,188.983
 L 94.6947,189.003 L 94.6674,189.022 L 94.64,189.041 L 94.6126,189.061 L 94.585,189.08 L 94.5573,189.099
 L 94.5296,189.117 L 94.5017,189.136 L 94.4737,189.154 L 94.4457,189.173 L 94.4175,189.191 L 94.3893,189.209
 L 94.361,189.227 L 94.3325,189.245 L 94.304,189.262 L 94.2754,189.28 L 94.2467,189.297 L 94.2179,189.314
 L 94.189,189.331 L 94.16,189.348 L 94.1309,189.364 L 94.1018,189.381 L 94.0725,189.397 L 94.0432,189.414
 L 94.0138,189.43 L 93.9843,189.446 L 93.9548,189.461 L 93.9251,189.477 L 93.8954,189.492 L 93.8655,189.508
 L 93.8356,189.523 L 93.8057,189.538 L 93.7756,189.553 L 93.7455,189.567 L 93.7153,189.582 L 93.685,189.596
 L 93.6546,189.61 L 93.6242,189.624 L 93.5937,189.638 L 93.5631,189.652 L 93.5325,189.665 L 93.5017,189.679
 L 93.471,189.692 L 93.4401,189.705 L 93.4092,189.718 L 93.3782,189.731 L 93.3471,189.743 L 93.316,189.756
 L 93.2848,189.768 L 93.2536,189.78 L 93.2222,189.792 L 93.1909,189.804 L 93.1594,189.815 L 93.1279,189.827
 L 93.0964,189.838 L 93.0647,189.849 L 93.0331,189.86 L 93.0013,189.871 L 92.9696,189.882 L 92.9377,189.892
 L 92.9058,189.902 L 92.8739,189.912 L 92.8419,189.922 L 92.8098,189.932 L 92.7777,189.942 L 92.7455,189.951
 L 92.7133,189.96 L 92.6811,189.969 L 92.6488,189.978 L 92.6164,189.987 L 92.5841,189.996 L 92.5516,190.004
 L 92.5191,190.012 L 92.4866,190.02 L 92.4541,190.028 L 92.4214,190.036 L 92.3888,190.044 L 92.3561,190.051
 L 92.3234,190.058 L 92.2906,190.065 L 92.2578,190.072 L 92.225,190.079 L 92.1921,190.086 L 92.1592,190.092
 L 92.1263,190.098 L 92.0933,190.104 L 92.0603,190.11 L 92.0273,190.116 L 91.9943,190.121 L 91.9612,190.126
 L 91.9281,190.132 L 91.8949,190.137 L 91.8618,190.141 L 91.8286,190.146 L 91.7954,190.15 L 91.7621,190.155
 L 91.7289,190.159 L 91.6956,190.163 L 91.6623,190.167 L 91.629,190.17 L 91.5956,190.174 L 91.5623,190.177
 L 91.5289,190.18 L 91.4955,190.183 L 91.4621,190.186 L 91.4287,190.188 L 91.3953,190.19 L 91.3619,190.193
 L 91.3284,190.195 L 91.295,190.196 L 91.2615,190.198 L 91.228,190.2 L 91.1945,190.201 L 91.161,190.202
 L 91.1275,190.203 L 91.094,190.204 L 91.0605,190.204 L 91.027,190.205 L 90.9935,190.205 L 90.96,190.205
 L 13.1226,190.205 z
M -87.8731,146.201 L -82.6769,146.201 L -85.275,150.701 z
M -31.0231,146.201 L -25.8269,146.201 L -28.425,150.701 z
M 25.8269,146.201 L 31.0231,146.201 L 28.425,150.701 z
M 82.6769,146.201 L 87.8731,146.201 L 85.275,150.701 z
M -116.298,195.434 L -111.102,195.434 L -113.7,199.934 z
M -59.4481,195.434 L -54.2519,195.434 L -56.85,199.934 z
M -2.59808,195.434 L 2.59808,195.434 L 0,199.934 z
M 54.2519,195.434 L 59.4481,195.434 L 56.85,199.934 z
M 111.102,195.434 L 116.298,195.434 L 113.7,199.934 z
" stroke="black" fill="lightgray" stroke-width="0.5"/>
</svg>
